<?xml version="1.0" encoding="utf-8"?>
<!-- Generator: Adobe Illustrator 16.0.0, SVG Export Plug-In . SVG Version: 6.00 Build 0)  -->
<!DOCTYPE svg PUBLIC "-//W3C//DTD SVG 1.1//EN" "http://www.w3.org/Graphics/SVG/1.1/DTD/svg11.dtd">
<svg version="1.1" id="Layer_1" xmlns="http://www.w3.org/2000/svg" xmlns:xlink="http://www.w3.org/1999/xlink" x="0px" y="0px"
	 width="700px" height="700px" viewBox="0 0 700 700" enable-background="new 0 0 700 700" xml:space="preserve">
<g id="Layer_2">
	<path fill="#545454" d="M445.9,295.4c-0.4-0.5-0.801-0.8-1.4-1l-98-24.3v-14.8c0-0.7-0.2-1.3-0.7-1.8c-0.6-0.6-1.2-0.8-1.899-0.8
		h-33.5c-0.7,0-1.301,0.3-1.801,0.8s-0.8,1.1-0.8,1.8v14.8l-100.3,24.3c-0.6,0.1-1,0.5-1.4,1c-0.4,0.4-0.5,0.9-0.5,1.5v239.3
		c0,0.6,0.1,1.1,0.4,1.5c0.4,0.5,0.9,0.8,1.5,1c1.2,0.399,2.5,0.7,3.7,1c50.8,13.6,99.3,18.8,145.8,15.8c30.2-2,59.4-7.6,87.7-16.8
		c0.5-0.2,1-0.5,1.3-1s0.4-1,0.4-1.5V296.9C446.4,296.3,446.2,295.8,445.9,295.4z"/>
</g>
<g id="Layer_1_1_">
	<g>
		<g>
			<g>
				<g>
					<g>
						<path fill="#D6D6D6" d="M445.9,295.4c0.3,0.4,0.5,0.9,0.5,1.5v239.3c0,0.5-0.101,1-0.4,1.5c-0.4,0.5-0.8,0.8-1.3,1
							c-28.3,9.1-57.5,14.7-87.7,16.8c-46.4,3.1-95-2.2-145.8-15.8c-1.2-0.3-2.5-0.601-3.7-1c-0.6-0.2-1.1-0.5-1.5-1
							c-0.3-0.4-0.4-0.9-0.4-1.5V296.9c0-0.6,0.2-1.1,0.5-1.5c0.4-0.5,0.8-0.8,1.4-1l100.3-24.3v-14.8c0-0.7,0.3-1.3,0.8-1.8
							c0.5-0.6,1.101-0.8,1.801-0.8h33.5c0.699,0,1.3,0.3,1.899,0.8c0.5,0.5,0.7,1.1,0.7,1.8v14.8l98,24.3
							C445.1,294.5,445.5,294.9,445.9,295.4z M341.7,273.3c-0.2-0.4-0.4-0.8-0.4-1.2v-14.3h-28.5v14.3c0,0.6-0.2,1.1-0.5,1.6
							c-0.399,0.4-0.8,0.7-1.399,0.8L210.7,299v31h54.5h141.2H441.3v-0.4v-0.2v-0.1V299l-98-24.4c-0.1,0-0.2,0-0.3,0
							c-0.4-0.2-0.8-0.5-1-0.8C341.9,273.5,341.8,273.4,341.7,273.3z M441.3,530.8V430.4v-30.7v-0.3c0-0.2,0-0.4,0-0.5v-63.7H210.7
							v95.2v102.1v0.1c4.7,3.601,16.9,7.101,36.4,10.5c23.5,4,49.9,6.2,79.4,6.5c25.9,0.3,50-1.3,72.2-4.7
							c18.5-2.899,32.7-6.5,42.6-10.8V530.8L441.3,530.8z"/>
						
							<linearGradient id="SVGID_1_" gradientUnits="userSpaceOnUse" x1="258.0352" y1="365.04" x2="291.5851" y2="365.04" gradientTransform="matrix(1 0 0 -1 52.3398 630.04)">
							<stop  offset="0" style="stop-color:#262626"/>
							<stop  offset="0.2235" style="stop-color:#7D7D7D"/>
							<stop  offset="0.3804" style="stop-color:#A0A0A0"/>
							<stop  offset="0.4471" style="stop-color:#B5B5B5"/>
							<stop  offset="0.6275" style="stop-color:#B5B5B5"/>
							<stop  offset="1" style="stop-color:#746974"/>
						</linearGradient>
						<polygon fill="url(#SVGID_1_)" points="341.4,272.1 340.3,272.1 315.5,272.1 312.9,272.1 312.9,257.9 341.4,257.9 						"/>
						
							<linearGradient id="SVGID_2_" gradientUnits="userSpaceOnUse" x1="375.0352" y1="307.915" x2="319.9352" y2="363.015" gradientTransform="matrix(1 0 0 -1 52.3398 630.04)">
							<stop  offset="0.3961" style="stop-color:#B4B4B4"/>
							<stop  offset="1" style="stop-color:#746974"/>
						</linearGradient>
						<path fill="url(#SVGID_2_)" d="M341.7,273.3l-1.5-1.2h1.1C341.4,272.5,341.5,272.9,341.7,273.3z M395.8,320.8L343,274.5
							c0.1,0,0.2,0,0.3,0l98,24.4v30.3c-0.5-3-11.8-5.5-33.8-7.5C403.7,321.4,399.8,321.1,395.8,320.8z M406.3,330h35
							c0-0.1,0-0.2,0-0.4v0.4H406.4H406.3z"/>
						
							<linearGradient id="SVGID_3_" gradientUnits="userSpaceOnUse" x1="281.312" y1="344.4766" x2="283.3634" y2="302.0517" gradientTransform="matrix(1 0 0 -1 52.3398 630.04)">
							<stop  offset="0" style="stop-color:#746974"/>
							<stop  offset="0.9333" style="stop-color:#B4B4B4"/>
						</linearGradient>
						<path fill="url(#SVGID_3_)" d="M315.5,272.1h24.8l1.5,1.2c0.101,0.1,0.101,0.2,0.3,0.4c0.301,0.3,0.601,0.6,1,0.8l52.801,46.3
							c-20.101-1.4-43.4-2.1-69.9-2.1c-18.9,0-36.1,0.4-51.8,1.1L315.5,272.1z M265.2,330L265.2,330l141-0.1l0.2,0.1H265.2z"/>
						<path fill="#4D4D4D" d="M441.3,329.6c0,0.1,0,0.2,0,0.4h-35h-141h-54.1v-1.8c2.9-2.5,13.9-4.6,33-6.4c9.2-0.9,19.3-1.5,30-2
							c15.6-0.7,32.899-1.1,51.8-1.1c26.5,0,49.8,0.7,69.9,2.1c4,0.3,7.899,0.6,11.699,1c22,2,33.301,4.5,33.801,7.5
							c0,0.1,0,0.1,0,0.1v0.2H441.3z M341.5,400.1H312H211.1v-3.3c0.1-0.2,0.2-0.3,0.4-0.399c3.2-4.301,14.1-8.101,32.6-11.301
							c22.6-3.899,49.8-5.8,81.8-5.8c31.899,0,59.1,1.9,81.6,5.8c22,3.801,33.3,8.4,33.8,13.801c0,0.1,0,0.3,0,0.5v0.3
							c0,0.1,0,0.3,0,0.399H341.5z M441.3,530.8v3.4c-9.899,4.3-24.1,7.899-42.6,10.8c-22.2,3.4-46.3,5-72.2,4.7
							c-29.4-0.3-55.9-2.5-79.4-6.5c-19.5-3.4-31.7-6.9-36.4-10.5V532.6l0.4-2c4.8-2.8,15.3-5.399,31.5-7.6
							c23-3.1,50.8-4.6,83.4-4.6c32.5,0,60.3,1.5,83.3,4.6C426,525.2,436.7,527.8,441.3,530.8z"/>
						
							<linearGradient id="SVGID_4_" gradientUnits="userSpaceOnUse" x1="155.7476" y1="244.9897" x2="391.4726" y2="244.9897" gradientTransform="matrix(1 0 0 -1 52.3398 630.04)">
							<stop  offset="0" style="stop-color:#262626"/>
							<stop  offset="0.2235" style="stop-color:#7D7D7D"/>
							<stop  offset="0.3804" style="stop-color:#A0A0A0"/>
							<stop  offset="0.4471" style="stop-color:#B5B5B5"/>
							<stop  offset="0.6275" style="stop-color:#B5B5B5"/>
							<stop  offset="1" style="stop-color:#746974"/>
						</linearGradient>
						<path fill="url(#SVGID_4_)" d="M312,400.1v5.601h29.5V400.1h99.8c0-0.1,0-0.3,0-0.399v30.7h-0.5v4.5H211.3v-4.5h-0.5v-95.2
							H441.4v63.7c-0.5-5.4-11.801-10-33.801-13.801c-22.5-3.899-49.699-5.8-81.6-5.8c-32,0-59.2,1.9-81.8,5.8
							c-18.6,3.2-29.5,7-32.6,11.301c-0.1,0.1-0.3,0.199-0.4,0.399v3.3H312z"/>
						
							<linearGradient id="SVGID_5_" gradientUnits="userSpaceOnUse" x1="186.5249" y1="302.4927" x2="223.9316" y2="367.3139" gradientTransform="matrix(1 0 0 -1 52.3398 630.04)">
							<stop  offset="0" style="stop-color:#B5B5B5"/>
							<stop  offset="1" style="stop-color:#746974"/>
						</linearGradient>
						<path fill="url(#SVGID_5_)" d="M265.2,330h-54.5v-31L311,274.5c0.5-0.2,1-0.4,1.4-0.8c0.399-0.5,0.5-1,0.5-1.6h2.6l-41.3,47.6
							c-10.8,0.5-20.8,1.1-30,2c-19.1,1.8-30.1,3.9-33,6.4v1.8L265.2,330L265.2,330z"/>
						
							<linearGradient id="SVGID_6_" gradientUnits="userSpaceOnUse" x1="266.9854" y1="227.1401" x2="283.3354" y2="227.1401" gradientTransform="matrix(1 0 0 -1 52.3398 630.04)">
							<stop  offset="0" style="stop-color:#4D4D4D"/>
							<stop  offset="0.2235" style="stop-color:#7D7D7D"/>
							<stop  offset="0.4157" style="stop-color:#888888"/>
							<stop  offset="0.5843" style="stop-color:#919191"/>
							<stop  offset="1" style="stop-color:#4D4D4D"/>
						</linearGradient>
						<rect x="312" y="400.1" fill="url(#SVGID_6_)" width="29.5" height="5.601"/>
						
							<linearGradient id="SVGID_7_" gradientUnits="userSpaceOnUse" x1="155.7476" y1="148.5898" x2="391.4725" y2="148.5898" gradientTransform="matrix(1 0 0 -1 52.3398 630.04)">
							<stop  offset="0" style="stop-color:#262626"/>
							<stop  offset="0.2235" style="stop-color:#7D7D7D"/>
							<stop  offset="0.3804" style="stop-color:#A0A0A0"/>
							<stop  offset="0.4471" style="stop-color:#B5B5B5"/>
							<stop  offset="0.6275" style="stop-color:#B5B5B5"/>
							<stop  offset="1" style="stop-color:#746974"/>
						</linearGradient>
						<path fill="url(#SVGID_7_)" d="M441.3,430.4V530.8c-4.6-3-15.3-5.6-32-7.899c-23-3.101-50.8-4.601-83.3-4.601
							c-32.6,0-60.4,1.5-83.4,4.601c-16.3,2.199-26.8,4.8-31.5,7.6l-0.4,2V430.4h0.5v4.5h229.5v-4.5H441.3z"/>
					</g>
				</g>
			</g>
			<g>
				<g>
					
						<radialGradient id="SVGID_8_" cx="217.21" cy="161.6904" r="160.3125" gradientTransform="matrix(1 0 0 -1 52.3398 630.04)" gradientUnits="userSpaceOnUse">
						<stop  offset="0" style="stop-color:#000000;stop-opacity:0.5294"/>
						<stop  offset="1" style="stop-color:#010101;stop-opacity:0.498"/>
					</radialGradient>
					<path fill="url(#SVGID_8_)" d="M210.7,534.2v-129h230v129C365.9,555.1,289.2,555.1,210.7,534.2z"/>
				</g>
				<g>
					<g>
						<path d="M229.8,461.7c-0.3,0-0.5,1.3-0.6,3.8c-0.1,2.5,0,5.5,0.1,9c0,0.1,0,0.2,0,0.3c0.1,0.7,0.1,1.4,0.1,2.2
							c0.1,2.6,0.3,4.8,0.6,6.7c0.3,2.5,0.7,3.8,1.1,3.8c0.3-0.1,0.5-1.4,0.7-3.9c0-1,0-2.199,0-3.5c0-1.6-0.1-3.5-0.2-5.5
							c-0.1-0.399-0.1-0.8-0.1-1.3c-0.1-3-0.3-5.6-0.5-7.899C230.5,462.8,230.2,461.6,229.8,461.7z M230.8,489.7
							c-0.4-0.5-0.8-2-1.3-4.4c-0.5-2.8-0.9-6-1-9.6c0-0.101,0-0.2,0-0.4s0-0.399,0-0.6c-0.2-4.2-0.2-7.8,0-10.7
							c0.2-2.2,0.5-3.5,0.9-4c0-0.1,0.1-0.1,0.3-0.2c0.6,0.101,1.1,1.601,1.6,4.4c0.4,2.399,0.7,5.1,0.9,8.2
							c0.1,0.899,0.2,1.8,0.2,2.699c0.2,2.101,0.2,4.101,0.1,6c0,1.601-0.1,3.101-0.2,4.5c-0.3,2.9-0.7,4.301-1.2,4.301
							C231,489.9,230.9,489.8,230.8,489.7z"/>
						
							<linearGradient id="SVGID_9_" gradientUnits="userSpaceOnUse" x1="171.6919" y1="164.0444" x2="184.416" y2="146.9501" gradientTransform="matrix(1 0 0 -1 52.3398 630.04)">
							<stop  offset="0" style="stop-color:#58575B"/>
							<stop  offset="0.2745" style="stop-color:#E1D1FA"/>
							<stop  offset="0.6627" style="stop-color:#645C78"/>
							<stop  offset="0.8667" style="stop-color:#525058"/>
							<stop  offset="0.9569" style="stop-color:#AB82EC"/>
							<stop  offset="1" style="stop-color:#554D62"/>
						</linearGradient>
						<path fill="url(#SVGID_9_)" d="M229.8,461.7c0.4,0,0.7,1.2,1.1,3.6c0.2,2.3,0.4,4.9,0.5,7.9c0,0.399,0.1,0.8,0.1,1.3
							c0.1,2.1,0.2,3.9,0.2,5.5c0,1.3,0,2.5,0,3.5c-0.2,2.5-0.4,3.8-0.7,3.9c-0.4,0-0.8-1.301-1.1-3.801
							c-0.3-1.899-0.5-4.1-0.6-6.699c0-0.7,0-1.5-0.1-2.2c0-0.101,0-0.2,0-0.3c-0.2-3.5-0.3-6.5-0.1-9
							C229.3,462.9,229.5,461.7,229.8,461.7z"/>
						
							<linearGradient id="SVGID_10_" gradientUnits="userSpaceOnUse" x1="174.5278" y1="166.4785" x2="173.8238" y2="141.9279" gradientTransform="matrix(1 0 0 -1 52.3398 630.04)">
							<stop  offset="0" style="stop-color:#000000"/>
							<stop  offset="0.1804" style="stop-color:#373737"/>
							<stop  offset="0.3765" style="stop-color:#151515"/>
							<stop  offset="1" style="stop-color:#000000"/>
						</linearGradient>
						<path fill="url(#SVGID_10_)" d="M223,484c-0.2-1.5-0.4-2.9-0.5-4.2l0,0c-0.4-4.5-0.5-8.8-0.3-12.6c0.1-0.4,0.1-0.8,0.1-1.3
							l7-5.9c-0.4,0.5-0.7,1.8-0.9,4c-0.2,2.9-0.2,6.5,0,10.7c0,0.2,0,0.399,0,0.6c0,0.101,0,0.3,0,0.4c0.2,3.6,0.5,6.8,1,9.6
							c0.5,2.4,0.9,3.8,1.3,4.4L223,484z"/>
						
							<linearGradient id="SVGID_11_" gradientUnits="userSpaceOnUse" x1="-557.3965" y1="497.5449" x2="-537.0941" y2="497.5449" gradientTransform="matrix(0.0714 -0.9974 -1.003 0.0068 755.4065 -74.7415)">
							<stop  offset="0" style="stop-color:#000000"/>
							<stop  offset="0" style="stop-color:#000000"/>
							<stop  offset="0.4235" style="stop-color:#1D1D1D"/>
							<stop  offset="0.7216" style="stop-color:#3C3C3C"/>
							<stop  offset="1" style="stop-color:#242424"/>
						</linearGradient>
						<path fill="url(#SVGID_11_)" d="M220.1,466h2.2c0,0.5-0.1,0.9-0.1,1.3c-0.3,3.9-0.2,8.101,0.3,12.601l0,0
							c0.2,1.3,0.4,2.699,0.5,4.199h-2.3C219.9,478.2,219.7,472.2,220.1,466z M216,466c-0.9,5.8-0.8,11.8,0.4,18l-4.9-0.1V465.8
							L216,466z"/>
						
							<linearGradient id="SVGID_12_" gradientUnits="userSpaceOnUse" x1="166.1904" y1="166.666" x2="165.5035" y2="143.0413" gradientTransform="matrix(1 0 0 -1 52.3398 630.04)">
							<stop  offset="0" style="stop-color:#626262"/>
							<stop  offset="0.0824" style="stop-color:#5E5E5E"/>
							<stop  offset="0.2235" style="stop-color:#DDDDDD"/>
							<stop  offset="0.3059" style="stop-color:#5E5E5E"/>
							<stop  offset="0.4431" style="stop-color:#484848"/>
							<stop  offset="0.549" style="stop-color:#909090"/>
							<stop  offset="0.6471" style="stop-color:#FFFFFF"/>
							<stop  offset="0.7882" style="stop-color:#3C3C3C"/>
							<stop  offset="1" style="stop-color:#242424"/>
						</linearGradient>
						<path fill="url(#SVGID_12_)" d="M216.4,484c-1.1-6.2-1.2-12.3-0.4-18h0.1c1.3-0.8,2.6-0.8,3.9,0h0.1
							c-0.4,6.2-0.2,12.3,0.6,18.1c0,0.101,0,0.2,0,0.301c-1.9,0.5-3.4,0.5-4.4-0.101C216.4,484.1,216.4,484,216.4,484z"/>
					</g>
				</g>
				<g>
					
						<linearGradient id="SVGID_13_" gradientUnits="userSpaceOnUse" x1="191.0728" y1="151.8901" x2="333.7477" y2="151.8901" gradientTransform="matrix(1 0 0 -1 52.3398 630.04)">
						<stop  offset="0" style="stop-color:#FFFFFF;stop-opacity:0.498"/>
						<stop  offset="1" style="stop-color:#FFFFFF;stop-opacity:0"/>
					</linearGradient>
					<polygon fill="url(#SVGID_13_)" points="232.1,466.3 423.9,415.5 423.1,540.8 232.1,483.5 					"/>
				</g>
			</g>
			<g>
				
					<linearGradient id="SVGID_14_" gradientUnits="userSpaceOnUse" x1="498.9678" y1="878.9404" x2="513.5801" y2="878.9404" gradientTransform="matrix(-0.0411 0.9992 1 0.0214 -647.6398 -85.9589)">
					<stop  offset="0" style="stop-color:#626262"/>
					<stop  offset="0.0824" style="stop-color:#5E5E5E"/>
					<stop  offset="0.2235" style="stop-color:#DDDDDD"/>
					<stop  offset="0.3059" style="stop-color:#5E5E5E"/>
					<stop  offset="0.4431" style="stop-color:#484848"/>
					<stop  offset="0.549" style="stop-color:#909090"/>
					<stop  offset="0.6471" style="stop-color:#FFFFFF"/>
					<stop  offset="0.7882" style="stop-color:#3C3C3C"/>
					<stop  offset="1" style="stop-color:#242424"/>
				</linearGradient>
				<path fill="url(#SVGID_14_)" d="M211.3,444.5c-0.3,0-0.6-0.1-0.9-0.1V444.3c-1-3.8-1.1-7.6-0.4-11.3h0.1
					c0.4-0.1,0.8-0.2,1.1-0.3v11.8H211.3z"/>
			</g>
		</g>
	</g>
	<g>
		<g>
			
				<linearGradient id="SVGID_15_" gradientUnits="userSpaceOnUse" x1="514.043" y1="-59.0718" x2="510.3974" y2="357.2791" gradientTransform="matrix(1 0 0 -1 52.3398 630.04)">
				<stop  offset="0" style="stop-color:#FFFFFF;stop-opacity:0.498"/>
				<stop  offset="1" style="stop-color:#FFFFFF;stop-opacity:0"/>
			</linearGradient>
			<path fill="url(#SVGID_15_)" d="M456.3,240L669.4,192c0,0.1-0.101,0.2-0.101,0.3l-0.399,1.9c-0.2,0.1-0.4,0.3-0.4,0.5l-0.7,1.9
				c-0.1,0.3-0.1,0.5,0,0.8c0.101,0.1,0.2,0.3,0.3,0.4c-0.1,0.1-0.199,0.2-0.199,0.4l-0.4,1.6c-0.2,0-0.3,0-0.5,0.1
				c-0.3,0.1-0.4,0.3-0.5,0.5l-0.7,1.9c-0.1,0.3-0.1,0.5,0,0.8c0.101,0.3,0.3,0.4,0.5,0.5c0,0,0,0,0.101,0l-0.7,1.9l0,0
				c-0.3-0.1-0.5-0.1-0.8,0.1c-0.301,0.1-0.4,0.3-0.5,0.5l-0.7,1.9c-0.101,0.3-0.101,0.5,0,0.8c0.1,0.3,0.3,0.4,0.5,0.5h0.1
				l-0.7,1.9l0,0c-0.3-0.1-0.5-0.1-0.8,0c-0.3,0.1-0.4,0.3-0.5,0.6l-0.7,1.9c-0.1,0.3-0.1,0.5,0,0.8c0.101,0.3,0.3,0.4,0.5,0.5
				h0.101l-0.601,1.9h-0.1c-0.3-0.1-0.5-0.1-0.8,0.1c-0.3,0.1-0.4,0.3-0.5,0.5l-0.7,1.9c-0.1,0.3-0.1,0.5,0,0.8
				c0.1,0.3,0.3,0.4,0.5,0.5c0.1,0,0.1,0,0.2,0l-0.7,1.9h-0.1c-0.301-0.1-0.5-0.1-0.801,0c-0.3,0.1-0.399,0.3-0.5,0.6l-0.699,1.9
				c-0.101,0.3-0.101,0.5,0,0.8c0.1,0.3,0.3,0.4,0.5,0.5c0.1,0,0.1,0,0.199,0.1l-0.6,1.9h-0.1c-0.301-0.1-0.5-0.1-0.801,0
				c-0.3,0.1-0.399,0.3-0.5,0.5l-0.699,1.9c-0.101,0.3-0.101,0.5,0,0.8c0.1,0.3,0.3,0.4,0.5,0.5c0.1,0,0.1,0,0.199,0L655.4,234
				c-0.101,0-0.101-0.1-0.101-0.1c-0.3-0.1-0.5-0.1-0.8,0.1c-0.3,0.1-0.4,0.3-0.5,0.5l-0.7,1.9c-0.1,0.3-0.1,0.5,0,0.8
				c0.101,0.3,0.3,0.4,0.5,0.5c0.101,0,0.2,0,0.3,0l-0.699,2c-0.101,0-0.101-0.1-0.2-0.1c-0.3-0.1-0.5-0.1-0.8,0
				c-0.301,0.1-0.4,0.3-0.5,0.6l-0.7,1.9c-0.101,0.3-0.101,0.5,0,0.8c0.1,0.3,0.3,0.4,0.5,0.5c0.1,0,0.2,0,0.3,0.1l-0.7,1.9
				c-0.1,0-0.1-0.1-0.2-0.1c-0.3-0.1-0.5-0.1-0.8,0.1c-0.3,0.1-0.399,0.3-0.5,0.5l-0.7,1.9c-0.1,0.3-0.1,0.5,0,0.8
				c0.101,0.3,0.301,0.4,0.5,0.5c0.101,0,0.2,0.1,0.301,0l-0.7,2C649.1,251,649.1,251,649,251c-0.3-0.1-0.5-0.1-0.8,0
				s-0.4,0.3-0.5,0.6l-0.7,1.9c-0.1,0.3-0.1,0.5,0,0.8c0.1,0.3,0.3,0.4,0.5,0.5c0.1,0,0.2,0.1,0.3,0.1l-0.7,2
				c-0.1,0-0.2-0.1-0.3-0.1c-0.3-0.1-0.5-0.1-0.8,0c-0.3,0.1-0.4,0.3-0.5,0.5l-0.7,1.9c-0.1,0.3-0.1,0.5,0,0.8s0.3,0.4,0.5,0.5
				c0.1,0,0.2,0.1,0.4,0l-0.7,2c-0.1-0.1-0.2-0.1-0.3-0.1c-0.3-0.1-0.5-0.1-0.8,0.1c-0.301,0.1-0.4,0.3-0.5,0.5l-0.7,1.9
				c-0.101,0.3-0.101,0.5,0,0.8c0.1,0.3,0.3,0.4,0.5,0.5c0.1,0,0.2,0.1,0.399,0l-0.699,2c-0.101-0.1-0.2-0.1-0.301-0.1
				c-0.3-0.1-0.5-0.1-0.8,0c-0.3,0.1-0.399,0.3-0.5,0.6l-0.7,1.9c-0.1,0.3-0.1,0.5,0,0.8c0.101,0.3,0.301,0.4,0.5,0.5
				c0.101,0,0.301,0.1,0.4,0.1l-0.7,2c-0.1-0.1-0.2-0.1-0.3-0.2c-0.3-0.1-0.5-0.1-0.8,0.1c-0.3,0.1-0.4,0.3-0.5,0.5l-0.7,1.9
				c-0.1,0.3-0.1,0.5,0,0.8c0.1,0.3,0.3,0.4,0.5,0.5c0.1,0,0.3,0.1,0.4,0l-0.7,2c-0.101-0.1-0.2-0.1-0.3-0.1
				c-0.301-0.1-0.5-0.1-0.801,0c-0.3,0.1-0.399,0.3-0.5,0.6L636.4,282c-0.101,0.3-0.101,0.5,0,0.8c0.1,0.3,0.3,0.4,0.5,0.5
				c0.1,0,0.3,0.1,0.399,0.1l-0.7,2c-0.1-0.1-0.199-0.1-0.3-0.2c-0.3-0.1-0.5-0.1-0.8,0s-0.4,0.3-0.5,0.5l-0.7,1.9
				c-0.1,0.3-0.1,0.5,0,0.8c0.101,0.3,0.3,0.4,0.5,0.5c0.101,0,0.3,0.1,0.4,0l-0.7,2.1c-0.1-0.1-0.2-0.2-0.3-0.2
				c-0.3-0.1-0.5-0.1-0.8,0.1c-0.2,0.1-0.4,0.3-0.5,0.6l-0.601,1.9c-0.1,0.3-0.1,0.5,0.101,0.8c0.1,0.2,0.3,0.4,0.6,0.5
				c0.1,0,0.2,0,0.3,0l-0.7,2c-0.1,0-0.199-0.1-0.3-0.1c-0.3-0.1-0.5-0.1-0.8,0c-0.3,0.1-0.4,0.3-0.5,0.6l-0.7,1.9
				c-0.1,0.3-0.1,0.5,0.101,0.8c0.1,0.3,0.3,0.4,0.5,0.5c0.1,0,0.199,0.1,0.3,0.1l-0.7,2c-0.1-0.1-0.2-0.1-0.3-0.2
				c-0.3-0.1-0.5-0.1-0.8,0.1c-0.2,0.1-0.4,0.3-0.5,0.6l-0.601,1.9c-0.1,0.3-0.1,0.5,0.101,0.8c0.1,0.2,0.3,0.4,0.6,0.5
				c0.1,0,0.1,0,0.2,0l-0.7,2c-0.1,0-0.1-0.1-0.2-0.1c-0.3-0.1-0.5-0.1-0.8,0c-0.3,0.1-0.4,0.3-0.5,0.6l-0.7,1.9
				c-0.1,0.3-0.1,0.5,0,0.8c0.101,0.3,0.3,0.4,0.5,0.5c0.101,0,0.2,0.1,0.3,0.1l-0.699,2c-0.101-0.1-0.101-0.1-0.2-0.1
				c-0.3-0.1-0.5-0.1-0.8,0c-0.301,0.1-0.4,0.3-0.5,0.5l-0.7,1.9c-0.101,0.3-0.101,0.5,0,0.8c0.1,0.3,0.3,0.4,0.5,0.5
				c0.1,0,0.2,0.1,0.399,0l-0.699,2c-0.101-0.1-0.2-0.1-0.301-0.1c-0.3-0.1-0.5-0.1-0.8,0.1c-0.2,0.1-0.399,0.3-0.5,0.6l1.2,1.8
				c-0.1,0.3-0.1,0.5,0.1,0.8c0.101,0.2,0.301,0.4,0.601,0.5c0.1,0,0.2,0,0.2,0l-0.7,2c-0.101,0-0.101-0.1-0.2-0.1
				c-0.3-0.1-0.5-0.1-0.8,0c-0.3,0.1-0.4,0.3-0.5,0.6l-0.7,1.9c-0.1,0.3-0.1,0.5,0,0.8s0.3,0.4,0.6,0.5c0.101,0,0.2,0.1,0.301,0.1
				l-0.7,2C622.1,331,622.1,331,622,331c-0.3-0.1-0.5-0.1-0.8,0.1c-0.3,0.1-0.4,0.3-0.5,0.5l-0.7,1.9c-0.1,0.3-0.1,0.5,0,0.8
				c0.1,0.3,0.3,0.4,0.6,0.5c0.101,0,0.2,0.1,0.3,0l-0.699,2c-0.101-0.1-0.2-0.1-0.301-0.1c-0.3-0.1-0.5-0.1-0.8,0.1
				c-0.2,0.1-0.399,0.3-0.5,0.6l-0.6,1.9c-0.1,0.3-0.1,0.5,0.1,0.8c0.101,0.2,0.3,0.4,0.601,0.5c0.1,0,0.1,0,0.199,0.1l-0.699,1.9
				c-0.101,0-0.101-0.1-0.2-0.1c-0.3-0.1-0.5-0.1-0.8,0c-0.301,0.1-0.4,0.3-0.5,0.5l-0.7,1.9c-0.101,0.3-0.101,0.5,0,0.8
				c0.1,0.3,0.3,0.4,0.5,0.5c0.1,0,0.2,0,0.3,0l-0.7,2c-0.1-0.1-0.2-0.1-0.3-0.1c-0.3-0.1-0.5-0.1-0.8,0.1c-0.2,0.1-0.4,0.3-0.5,0.6
				l-0.601,1.899c-0.1,0.301-0.1,0.5,0.101,0.801c0.1,0.199,0.3,0.4,0.6,0.5c0.101,0,0.101,0,0.101,0l-0.7,1.9
				c0,0-0.101,0-0.101-0.101c-0.3-0.101-0.5-0.101-0.8,0.101c-0.3,0.1-0.399,0.299-0.5,0.5l-0.7,1.899c-0.1,0.3-0.1,0.5,0,0.8
				c0.101,0.301,0.301,0.4,0.5,0.5c0.101,0,0.101,0,0.2,0l-0.7,2c-0.1,0-0.1-0.1-0.199-0.1c-0.301-0.1-0.5-0.1-0.801,0.1
				c-0.199,0.1-0.399,0.301-0.5,0.6l-0.6,1.9c-0.1,0.301-0.1,0.5,0.1,0.801c0.101,0.199,0.301,0.399,0.601,0.5h0.1L610,365.3h-0.101
				c-0.3-0.101-0.5-0.101-0.8,0s-0.399,0.3-0.5,0.5l-0.7,1.899c-0.1,0.301-0.1,0.5,0.101,0.801c0.1,0.3,0.3,0.4,0.5,0.5
				c0.1,0,0.1,0,0.2,0l-0.7,1.9h-0.101c-0.3-0.101-0.5-0.101-0.8,0c-0.3,0.1-0.399,0.299-0.5,0.5l-0.7,1.899
				c-0.1,0.3-0.1,0.5,0.101,0.8c0.1,0.301,0.3,0.4,0.5,0.5c0.1,0,0.1,0,0.2,0l-0.7,1.9c-0.101,0-0.101-0.1-0.2-0.1
				c-0.3-0.101-0.5-0.101-0.8,0.1c-0.2,0.1-0.4,0.3-0.5,0.6l-0.601,1.9c-0.1,0.3-0.1,0.5,0.101,0.8c0.1,0.2,0.3,0.399,0.6,0.5h0.1
				l-0.6,1.899H604c-0.3-0.1-0.5-0.1-0.8,0.101c-0.301,0.101-0.4,0.3-0.5,0.5l-0.7,1.899c-0.101,0.301-0.101,0.5,0,0.801
				c0.1,0.3,0.3,0.4,0.5,0.5c0.1,0,0.1,0,0.2,0l-0.7,1.9h-0.101c-0.3-0.101-0.5-0.101-0.8,0.1c-0.2,0.1-0.399,0.3-0.5,0.6l-0.6,1.9
				c-0.101,0.3-0.101,0.5,0.1,0.8c0.101,0.2,0.3,0.399,0.601,0.5l0,0l-0.7,1.899l0,0c-0.3-0.1-0.5-0.1-0.8,0
				c-0.301,0.101-0.4,0.301-0.5,0.5l-0.7,1.9c-0.101,0.301-0.101,0.5,0,0.801c0.1,0.299,0.3,0.399,0.6,0.5h0.1L598,399.3l0,0
				c-0.301-0.101-0.5-0.101-0.801,0c-0.3,0.101-0.399,0.3-0.5,0.5L596,401.699c-0.101,0.301-0.101,0.5,0,0.801
				c0.1,0.3,0.3,0.4,0.6,0.5h0.1L596,404.9h-0.101c-0.3-0.101-0.5-0.101-0.8,0.1c-0.2,0.1-0.4,0.3-0.5,0.6l-0.6,1.9
				c-0.101,0.3-0.101,0.5,0.1,0.8c0.1,0.2,0.3,0.399,0.6,0.5l0,0L594,410.699l0,0c-0.301-0.1-0.5-0.1-0.801,0.101
				c-0.3,0.101-0.399,0.3-0.5,0.5L592,413.199c-0.101,0.301-0.101,0.5,0,0.801c0.1,0.3,0.3,0.4,0.5,0.5h0.1l-0.7,1.9c0,0,0,0-0.1,0
				c-0.3-0.101-0.5-0.101-0.8,0.1c-0.2,0.1-0.4,0.3-0.5,0.6l-0.601,1.9c-0.1,0.3-0.1,0.5,0.101,0.8c0.1,0.2,0.3,0.399,0.5,0.5
				l-0.7,1.899c-0.3-0.1-0.5-0.1-0.8,0c-0.101,0.101-0.2,0.101-0.301,0.2L566,408l-0.3-0.4l0,0c0.2-0.199,0.399-0.399,0.399-0.699
				c0.101-0.301,0-0.5-0.1-0.801l-1.1-1.6c-0.2-0.2-0.4-0.4-0.601-0.4c-0.3,0-0.5,0-0.7,0.101l-1.1-1.601
				c0.2-0.199,0.3-0.399,0.4-0.6c0.1-0.3,0-0.5-0.101-0.8l-1.1-1.7c-0.2-0.2-0.4-0.4-0.7-0.4c-0.3-0.1-0.5,0-0.8,0.101l-1.1-1.601
				c0.199-0.199,0.3-0.399,0.399-0.6c0.101-0.3,0-0.5-0.1-0.8l-1.1-1.7c-0.2-0.2-0.4-0.4-0.601-0.4c-0.3-0.1-0.5,0-0.8,0.101
				l-1.1-1.601c0.199-0.199,0.3-0.399,0.399-0.6c0.101-0.3,0-0.5-0.1-0.8L555,389.5c-0.199-0.2-0.399-0.4-0.6-0.4
				c-0.3-0.1-0.5,0-0.8,0.101L552.5,387.6c0.2-0.199,0.301-0.399,0.4-0.6c0.1-0.3,0-0.5-0.1-0.8l-1.101-1.7
				c-0.199-0.2-0.399-0.4-0.699-0.4c-0.301-0.1-0.5,0-0.801,0.101l-1.1-1.601c0.2-0.199,0.3-0.399,0.4-0.6c0.1-0.3,0-0.5-0.101-0.8
				l-1.1-1.7c-0.2-0.2-0.4-0.4-0.7-0.4c-0.3-0.1-0.5,0-0.8,0.101l-1.1-1.601c0.199-0.199,0.3-0.399,0.399-0.6
				c0.101-0.3,0-0.5-0.1-0.8l-1.101-1.7c-0.199-0.2-0.399-0.4-0.699-0.4c-0.301-0.1-0.5,0-0.801,0.101l-1.1-1.601
				c0.2-0.199,0.3-0.399,0.4-0.6c0.1-0.3,0-0.5-0.101-0.8l-1.1-1.7c-0.2-0.2-0.4-0.4-0.601-0.4c-0.3-0.1-0.5,0-0.8,0.101l-1.1-1.601
				c0.2-0.199,0.3-0.399,0.4-0.6c0.1-0.3,0-0.5-0.101-0.8l-1.1-1.7c-0.2-0.2-0.4-0.4-0.601-0.4c-0.3-0.1-0.5,0-0.8,0.101l-1.1-1.601
				c0.2-0.199,0.3-0.399,0.4-0.6c0.1-0.3,0-0.5-0.101-0.8l-1.1-1.7c-0.2-0.2-0.4-0.4-0.7-0.4c-0.3-0.1-0.5,0-0.8,0.101l-1.101-1.601
				c0.2-0.199,0.301-0.399,0.4-0.6c0.1-0.3,0-0.5-0.1-0.8l-1.101-1.7c-0.2-0.2-0.399-0.4-0.7-0.4c-0.3-0.1-0.5,0-0.8,0.101
				l-1.1-1.601c0.2-0.199,0.3-0.399,0.399-0.6c0.101-0.3,0-0.5-0.1-0.8l-1.1-1.7c-0.2-0.2-0.4-0.4-0.7-0.4c-0.3-0.1-0.5,0-0.8,0.1
				l-1.101-1.6c0.2-0.2,0.301-0.4,0.4-0.6c0.1-0.3,0-0.5-0.1-0.8l-1.101-1.7c-0.2-0.2-0.399-0.4-0.6-0.4c-0.3-0.1-0.5,0-0.8,0.1
				l-1.101-1.6c0.2-0.2,0.301-0.4,0.4-0.6c0.1-0.3,0-0.5-0.1-0.8l-1.101-1.7c-0.2-0.2-0.399-0.4-0.6-0.4c-0.3-0.1-0.5,0-0.8,0.1
				l-1.101-1.6c0.2-0.2,0.3-0.4,0.4-0.6c0.1-0.3,0-0.5-0.101-0.8l-1.1-1.7c-0.2-0.2-0.4-0.4-0.7-0.4c-0.3-0.1-0.5,0-0.8,0.1
				l-1.1-1.6c0.2-0.2,0.3-0.4,0.399-0.6c0.101-0.3,0-0.5-0.1-0.8l-1.1-1.7c-0.2-0.2-0.4-0.4-0.7-0.4c-0.3-0.1-0.5,0-0.8,0.1
				l-1.101-1.6c0.2-0.2,0.3-0.4,0.4-0.6c0.1-0.3,0-0.5-0.1-0.8l-1.101-1.7c-0.2-0.2-0.399-0.4-0.7-0.4c-0.3-0.1-0.5,0-0.8,0.1l0,0
				l-1-1.6c0.2-0.2,0.3-0.4,0.4-0.6c0.1-0.3,0-0.5-0.101-0.8l-1.1-1.7c-0.2-0.2-0.4-0.4-0.6-0.4c-0.301-0.1-0.5,0-0.801,0.1l0,0
				l-1.1-1.6c0.2-0.2,0.4-0.4,0.4-0.6c0.1-0.3,0-0.5-0.101-0.8l-1.1-1.7c-0.2-0.2-0.4-0.4-0.601-0.4c-0.3-0.1-0.5,0-0.8,0.1l0,0
				l-1.1-1.6c0.2-0.2,0.399-0.4,0.399-0.6c0.101-0.3,0-0.5-0.1-0.8l-1.101-1.7c-0.199-0.2-0.399-0.4-0.699-0.4
				c-0.301-0.1-0.5,0-0.801,0.1l0,0l-1.1-1.6c0.2-0.2,0.4-0.4,0.4-0.6c0.1-0.3,0-0.5-0.101-0.8l-1.1-1.7c-0.2-0.2-0.4-0.4-0.7-0.4
				c-0.3-0.1-0.5,0-0.8,0.1l0,0l-1.101-1.6c0.2-0.2,0.4-0.4,0.4-0.6c0.1-0.3,0-0.5-0.1-0.8l-1.101-1.7c-0.2-0.2-0.399-0.4-0.7-0.4
				c-0.3-0.1-0.5,0-0.8,0.1l0,0l-1.1-1.6c0.2-0.2,0.399-0.4,0.399-0.6c0.101-0.3,0-0.5-0.1-0.8l-1.1-1.7c-0.2-0.2-0.4-0.4-0.601-0.4
				c-0.3-0.1-0.5,0-0.8,0.1l0,0l-1.1-1.6c0.199-0.2,0.399-0.4,0.399-0.6c0.101-0.3,0-0.5-0.1-0.8l-1.101-1.7
				c-0.2-0.2-0.399-0.4-0.6-0.4c-0.3-0.1-0.5,0-0.8,0.1l0,0l-1.101-1.6c0.2-0.2,0.4-0.4,0.4-0.6c0.1-0.3,0-0.5-0.101-0.8l-1.1-1.7
				c-0.2-0.2-0.4-0.4-0.7-0.4c-0.3-0.1-0.5,0-0.8,0.1l0,0l-1.1-1.6c0.199-0.2,0.399-0.4,0.399-0.6c0.101-0.3,0-0.5-0.1-0.8
				l-1.101-1.7c-0.199-0.2-0.399-0.4-0.699-0.4c-0.301-0.1-0.5,0-0.801,0.1l0,0l-1.1-1.6c0.2-0.2,0.4-0.4,0.4-0.6
				c0.1-0.3,0-0.5-0.101-0.8l-1.1-1.7c-0.2-0.2-0.4-0.4-0.7-0.4c-0.3-0.1-0.5,0-0.8,0.1l0,0l-1.101-1.6c0.2-0.2,0.4-0.4,0.4-0.6
				c0.1-0.3,0-0.5-0.1-0.8l-1.101-1.7c-0.2-0.2-0.399-0.4-0.6-0.4c-0.3-0.1-0.5,0-0.8,0.1l0,0l-1.101-1.6c0.2-0.2,0.4-0.4,0.4-0.6
				c0.1-0.3,0-0.5-0.101-0.8l-1.1-1.7c-0.2-0.2-0.4-0.4-0.6-0.4c-0.301-0.1-0.5,0-0.801,0.1l0,0l-1.1-1.6c0.2-0.2,0.4-0.4,0.4-0.6
				c0.1-0.3,0-0.5-0.101-0.8l-1.1-1.7c-0.2-0.2-0.4-0.4-0.7-0.4c-0.3-0.1-0.5,0-0.8,0.1l0,0l-1.101-1.6c0.2-0.2,0.4-0.4,0.4-0.6
				c0.1-0.3,0-0.5-0.1-0.8l-1.101-1.7c-0.2-0.2-0.399-0.4-0.7-0.4c-0.3-0.1-0.5,0-0.8,0.1l0,0l-1.1-1.6c0.2-0.2,0.399-0.4,0.399-0.6
				c0.101-0.3,0-0.5-0.1-0.8l-1.1-1.7c-0.2-0.2-0.4-0.4-0.7-0.4c-0.3-0.1-0.5,0-0.8,0.1l0,0l-1.101-1.6c0.2-0.2,0.4-0.4,0.4-0.6
				c0.1-0.3,0-0.5-0.101-0.8l-1.1-1.7c-0.2-0.2-0.4-0.4-0.6-0.4c-0.301-0.1-0.5,0-0.801,0.1l0,0l-1.1-1.6c0.2-0.2,0.4-0.4,0.4-0.6
				c0.1-0.3,0-0.5-0.101-0.8L456.3,240z"/>
			<path fill="#FFFFFF" d="M669.4,192c0.1-0.2,0.199-0.3,0.3-0.4c0.2-0.2,0.5-0.2,0.8-0.1s0.5,0.2,0.6,0.4
				c0.2,0.2,0.2,0.5,0.101,0.8l-0.4,1.9c-0.1,0.3-0.2,0.5-0.399,0.6l0,0v0.1l-0.7,1.9c0,0.1-0.101,0.2-0.2,0.3
				c0.1,0.1,0.2,0.2,0.2,0.3c0.1,0.2,0.2,0.5,0.1,0.8l-0.5,1.9c-0.1,0.3-0.2,0.5-0.5,0.6c-0.2,0.1-0.4,0.2-0.5,0.1l-0.7,1.8
				c0,0.1,0,0.1-0.1,0.2l0,0c0.3,0.1,0.5,0.2,0.6,0.5c0.101,0.2,0.2,0.5,0.101,0.8l-0.5,1.9c-0.101,0.3-0.2,0.5-0.5,0.6
				c-0.2,0.1-0.5,0.2-0.801,0.1c-0.1,0-0.199-0.1-0.3-0.1l-0.7,1.8c-0.1,0.3-0.3,0.4-0.5,0.5c-0.199,0.1-0.399,0.1-0.699,0.1H664.1
				c-0.3-0.1-0.399-0.3-0.5-0.5c-0.1-0.3-0.1-0.5,0-0.8l0.7-1.9c0.1-0.3,0.3-0.4,0.5-0.5c0.3-0.1,0.5-0.1,0.8-0.1l0,0
				c0.101,0,0.101,0.1,0.2,0.1l0.5-1.7c0-0.1,0.1-0.2,0.1-0.3h-0.1h-0.1c-0.3-0.1-0.4-0.3-0.5-0.5c-0.101-0.3-0.101-0.5,0-0.8
				l0.7-1.9c0.1-0.3,0.3-0.4,0.5-0.5c0.199-0.1,0.3-0.1,0.5-0.1l0.399-1.6c0-0.1,0.101-0.3,0.2-0.4c-0.1-0.1-0.2-0.2-0.3-0.4
				c-0.101-0.3-0.101-0.5,0-0.8l0.7-1.9c0.1-0.2,0.199-0.4,0.399-0.5l0.4-1.9C669.3,192.2,669.3,192.1,669.4,192z M661.8,216.8
				c0.2,0.1,0.4,0.3,0.5,0.5c0.101,0.3,0.101,0.5,0,0.8l-0.7,1.9c-0.1,0.3-0.3,0.4-0.5,0.5c-0.199,0.1-0.399,0.1-0.6,0.1
				c0,0-0.1,0-0.2,0c-0.3-0.1-0.399-0.3-0.5-0.5c-0.1-0.3-0.1-0.5,0-0.8l0.7-1.9c0.1-0.3,0.3-0.4,0.5-0.5
				C661.2,216.7,661.4,216.7,661.8,216.8C661.7,216.8,661.7,216.8,661.8,216.8z M662.4,214.9H662.3c-0.3-0.1-0.399-0.3-0.5-0.5
				c-0.1-0.3-0.1-0.5,0-0.8l0.7-1.9c0.1-0.3,0.3-0.4,0.5-0.6c0.3-0.1,0.5-0.1,0.8,0l0,0c0.2,0.1,0.4,0.3,0.5,0.5
				c0.101,0.3,0.101,0.5,0,0.8l-0.7,1.9c-0.1,0.3-0.3,0.4-0.5,0.6C662.9,215,662.6,215,662.4,214.9z M659.8,222.5
				c0.2,0.1,0.4,0.3,0.5,0.5c0.101,0.3,0.101,0.5,0,0.8l-0.7,1.9c-0.1,0.3-0.3,0.4-0.5,0.5c-0.199,0.1-0.399,0.1-0.6,0.1
				c-0.1,0-0.1,0-0.2-0.1c-0.3-0.1-0.399-0.3-0.5-0.5c-0.1-0.3-0.1-0.5,0-0.8l0.7-1.9c0.1-0.3,0.3-0.4,0.5-0.6
				C659.2,222.4,659.4,222.4,659.8,222.5C659.7,222.5,659.8,222.5,659.8,222.5z M655.8,234c0.2,0.1,0.3,0.2,0.4,0.4
				c0.1,0.3,0.1,0.5,0,0.8l-0.7,1.9c-0.1,0.3-0.3,0.4-0.5,0.5s-0.4,0.1-0.5,0.1s-0.2,0-0.3,0c-0.3-0.1-0.4-0.3-0.5-0.5
				c-0.101-0.3-0.101-0.5,0-0.8l0.7-1.9c0.1-0.3,0.3-0.4,0.5-0.5c0.3-0.1,0.5-0.1,0.8-0.1C655.7,233.9,655.8,233.9,655.8,234z
				 M656.5,232c-0.1,0-0.2,0-0.2,0c-0.3-0.1-0.399-0.3-0.5-0.5c-0.1-0.3-0.1-0.5,0-0.8l0.7-1.9c0.1-0.3,0.3-0.4,0.5-0.5
				c0.3-0.1,0.5-0.1,0.8,0h0.101c0.199,0.1,0.3,0.3,0.399,0.5c0.101,0.3,0.101,0.5,0,0.8l-0.7,1.9c-0.1,0.3-0.3,0.4-0.5,0.6
				C656.9,232,656.7,232.1,656.5,232z M653.9,239.7c0.199,0.1,0.3,0.2,0.399,0.4c0.101,0.3,0.101,0.5,0,0.8l-0.7,1.9
				c-0.1,0.3-0.3,0.4-0.5,0.6c-0.199,0.1-0.3,0.1-0.5,0.1c-0.1,0-0.199,0-0.3-0.1c-0.3-0.1-0.399-0.3-0.5-0.5
				c-0.1-0.3-0.1-0.5,0-0.8l0.7-1.9c0.1-0.3,0.3-0.4,0.5-0.6c0.3-0.1,0.5-0.1,0.8,0C653.8,239.6,653.8,239.7,653.9,239.7z
				 M650.6,249.1c-0.1,0-0.199,0-0.3,0c-0.3-0.1-0.399-0.3-0.5-0.5c-0.1-0.3-0.1-0.5,0-0.8l0.7-1.9c0.1-0.3,0.3-0.4,0.5-0.5
				c0.3-0.1,0.5-0.1,0.8-0.1c0.101,0,0.101,0.1,0.2,0.1c0.2,0.1,0.3,0.2,0.3,0.4c0.101,0.3,0.101,0.5,0,0.8l-0.7,1.9
				c-0.1,0.3-0.3,0.4-0.5,0.5C650.9,249.1,650.8,249.2,650.6,249.1z M649.9,251.1c0.1,0.1,0.199,0.2,0.3,0.4c0.1,0.3,0.1,0.5,0,0.8
				l-0.7,1.9c-0.1,0.3-0.3,0.4-0.5,0.5c-0.1,0.1-0.3,0.1-0.5,0.1c-0.1,0-0.2,0-0.3-0.1c-0.3-0.1-0.4-0.3-0.5-0.5
				c-0.101-0.3-0.101-0.5,0-0.8l0.7-1.9c0.1-0.3,0.3-0.4,0.5-0.6c0.3-0.1,0.5-0.1,0.8,0C649.8,251,649.9,251.1,649.9,251.1z
				 M646.7,260.5c-0.101,0-0.2,0-0.4,0c-0.3-0.1-0.399-0.3-0.5-0.5c-0.1-0.3-0.1-0.5,0-0.8l0.7-1.9c0.1-0.3,0.3-0.4,0.5-0.5
				c0.3-0.1,0.5-0.1,0.8,0c0.101,0,0.2,0.1,0.3,0.1c0.101,0.1,0.2,0.2,0.301,0.4c0.1,0.3,0.1,0.5,0,0.8l-0.7,1.9
				c-0.101,0.3-0.3,0.4-0.5,0.6C646.9,260.5,646.8,260.6,646.7,260.5z M460.2,247.8c-0.2,0.1-0.5,0.2-0.8,0.1
				c-0.301-0.1-0.5-0.2-0.7-0.4l-1.101-1.7c-0.1-0.2-0.199-0.5-0.1-0.8s0.2-0.5,0.4-0.6l0,0c0.199-0.1,0.5-0.2,0.8-0.1
				c0.3,0.1,0.5,0.2,0.6,0.4l1.101,1.7c0.1,0.2,0.199,0.5,0.1,0.8C460.5,247.4,460.4,247.6,460.2,247.8z M456.3,240l0.9,1.4
				c0.1,0.2,0.2,0.5,0.1,0.8c-0.1,0.3-0.2,0.5-0.399,0.6c-0.2,0.1-0.5,0.2-0.801,0.1c-0.3-0.1-0.5-0.2-0.6-0.4l-1.1-1.7
				c-0.101-0.2-0.2-0.5-0.101-0.8c0.101-0.3,0.2-0.5,0.4-0.6s0.5-0.2,0.8-0.1c0.3,0.1,0.5,0.2,0.6,0.4L456.3,240z M470,262.8
				c-0.2,0.1-0.5,0.2-0.8,0.1s-0.5-0.2-0.601-0.4l-1.1-1.7c-0.1-0.2-0.2-0.5-0.1-0.8c0.1-0.3,0.199-0.5,0.399-0.6l0,0
				c0.2-0.1,0.5-0.2,0.8-0.1c0.301,0.1,0.5,0.2,0.7,0.4l1.101,1.7c0.1,0.2,0.199,0.5,0.1,0.8C470.4,262.4,470.3,262.6,470,262.8z
				 M474.4,269.4L474.4,269.4c0.3-0.2,0.5-0.2,0.8-0.1c0.3,0.1,0.5,0.2,0.6,0.4l1.101,1.7c0.1,0.2,0.199,0.5,0.1,0.8
				c-0.1,0.3-0.2,0.5-0.4,0.6c-0.199,0.1-0.5,0.2-0.8,0.1s-0.5-0.2-0.7-0.4l-1.1-1.7c-0.1-0.2-0.2-0.5-0.1-0.8
				C474.1,269.7,474.2,269.5,474.4,269.4z M473.3,267.8c-0.2,0.1-0.5,0.2-0.8,0.1s-0.5-0.2-0.6-0.4l-1.101-1.7
				c-0.1-0.2-0.2-0.5-0.1-0.8c0.1-0.3,0.2-0.5,0.399-0.6l0,0c0.2-0.1,0.5-0.2,0.801-0.1c0.3,0.1,0.5,0.2,0.6,0.4l1.1,1.7
				c0.101,0.2,0.2,0.5,0.101,0.8C473.7,267.4,473.6,267.6,473.3,267.8z M464.5,254.4L464.5,254.4c0.3-0.2,0.5-0.2,0.8-0.1
				c0.3,0.1,0.5,0.2,0.7,0.4l1.1,1.7c0.101,0.2,0.2,0.5,0.101,0.8c-0.101,0.3-0.2,0.5-0.4,0.6c-0.2,0.1-0.5,0.2-0.8,0.1
				s-0.5-0.2-0.7-0.4l-1.1-1.7c-0.101-0.2-0.2-0.5-0.101-0.8C464.2,254.7,464.3,254.5,464.5,254.4z M480,277.8
				c-0.2,0.1-0.5,0.2-0.8,0.1s-0.5-0.2-0.7-0.4l-1.1-1.7c-0.101-0.2-0.2-0.5-0.101-0.8c0.101-0.3,0.2-0.5,0.4-0.6l0,0
				c0.2-0.1,0.5-0.2,0.8-0.1c0.3,0.1,0.5,0.2,0.7,0.4l1.1,1.7c0.101,0.2,0.2,0.5,0.101,0.8C480.3,277.4,480.2,277.6,480,277.8z
				 M461.2,249.4L461.2,249.4c0.3-0.2,0.5-0.2,0.8-0.1c0.3,0.1,0.5,0.2,0.7,0.4l1.1,1.7c0.101,0.2,0.2,0.5,0.101,0.8
				c-0.101,0.3-0.2,0.5-0.4,0.6c-0.2,0.1-0.5,0.2-0.8,0.1s-0.5-0.2-0.7-0.4l-1.1-1.7c-0.101-0.2-0.2-0.5-0.101-0.8
				C460.9,249.7,461,249.5,461.2,249.4z M486.5,287.8c-0.2,0.1-0.5,0.2-0.8,0.1s-0.5-0.2-0.601-0.4l-1.1-1.7
				c-0.1-0.2-0.2-0.5-0.1-0.8c0.1-0.3,0.199-0.5,0.399-0.6l0,0c0.2-0.1,0.5-0.2,0.8-0.1c0.301,0.1,0.5,0.2,0.7,0.4l1.101,1.7
				c0.1,0.2,0.199,0.5,0.1,0.8C486.9,287.4,486.8,287.6,486.5,287.8z M481,279.4L481,279.4c0.3-0.2,0.5-0.2,0.8-0.1
				c0.3,0.1,0.5,0.2,0.7,0.4l1.1,1.7c0.101,0.2,0.2,0.5,0.101,0.8c-0.101,0.3-0.2,0.5-0.4,0.6c-0.2,0.1-0.5,0.2-0.8,0.1
				s-0.5-0.2-0.7-0.4l-1.1-1.7c-0.101-0.2-0.2-0.5-0.101-0.8C480.7,279.7,480.8,279.5,481,279.4z M646,262.5
				c0.1,0.1,0.2,0.2,0.3,0.4c0.101,0.3,0.101,0.5,0,0.8l-0.7,1.9c-0.1,0.3-0.3,0.4-0.5,0.5c-0.1,0.1-0.3,0.1-0.399,0.1
				c-0.101,0-0.3,0-0.4,0c-0.3-0.1-0.399-0.3-0.5-0.5c-0.1-0.3-0.1-0.5,0-0.8l0.7-1.9c0.1-0.3,0.3-0.4,0.5-0.5
				c0.3-0.1,0.5-0.1,0.8-0.1C645.8,262.4,645.9,262.5,646,262.5z M644,268.3c0.1,0.1,0.2,0.2,0.3,0.4c0.101,0.3,0.101,0.5,0,0.8
				l-0.7,1.9c-0.1,0.3-0.3,0.4-0.5,0.6c-0.1,0.1-0.3,0.1-0.399,0.1c-0.101,0-0.3,0-0.4-0.1c-0.3-0.1-0.399-0.3-0.5-0.5
				c-0.1-0.3-0.1-0.5,0-0.8l0.7-1.9c0.1-0.3,0.3-0.4,0.5-0.6c0.3-0.1,0.5-0.1,0.8,0C643.8,268.1,643.9,268.2,644,268.3z
				 M638.8,283.4c-0.1,0-0.3,0-0.399-0.1c-0.301-0.1-0.4-0.3-0.5-0.5c-0.101-0.3-0.101-0.5,0-0.8l0.699-1.9
				c0.101-0.3,0.301-0.4,0.5-0.6c0.301-0.1,0.5-0.1,0.801,0c0.1,0,0.199,0.1,0.3,0.1c0.1,0.1,0.2,0.2,0.3,0.4c0.1,0.3,0.1,0.5,0,0.8
				l-0.7,1.9c-0.1,0.3-0.3,0.4-0.5,0.5C639,283.3,638.9,283.3,638.8,283.4z M642,274c0.1,0.1,0.2,0.2,0.3,0.4
				c0.101,0.3,0.101,0.5,0,0.8l-0.6,1.9c-0.101,0.3-0.3,0.4-0.5,0.5c-0.101,0.1-0.3,0.1-0.4,0.1c-0.1,0-0.2,0-0.399,0
				c-0.301-0.1-0.4-0.3-0.5-0.5c-0.101-0.3-0.101-0.5,0-0.8l0.699-1.9c0.101-0.3,0.301-0.4,0.5-0.5c0.301-0.1,0.5-0.1,0.801-0.1
				C641.8,273.8,641.9,273.9,642,274z M636.8,289c-0.1,0-0.3,0-0.399,0c-0.301-0.1-0.4-0.3-0.5-0.5c-0.101-0.3-0.101-0.5,0-0.8
				l0.699-1.9c0.101-0.3,0.301-0.4,0.5-0.5c0.301-0.1,0.5-0.1,0.801,0c0.1,0,0.199,0.1,0.3,0.2c0.1,0.1,0.2,0.2,0.3,0.4
				c0.1,0.3,0.1,0.5,0,0.8l-0.7,1.9c-0.1,0.3-0.3,0.4-0.5,0.6C637,289,636.9,289,636.8,289z M634.1,296.7
				c0.101,0.1,0.2,0.2,0.301,0.4c0.1,0.3,0.1,0.5,0,0.8l-0.7,1.9c-0.101,0.3-0.3,0.4-0.5,0.6c-0.101,0.1-0.3,0.1-0.4,0.1
				c-0.1,0-0.2,0-0.3-0.1c-0.3-0.1-0.4-0.3-0.5-0.5c-0.1-0.3-0.1-0.5-0.1-0.8l0.699-1.9c0.101-0.3,0.301-0.4,0.5-0.6
				c0.301-0.1,0.5-0.1,0.801,0C633.9,296.6,634,296.7,634.1,296.7z M634.8,294.8c-0.1,0-0.2,0-0.3,0c-0.3-0.1-0.5-0.3-0.6-0.5
				c-0.101-0.2-0.2-0.5-0.101-0.8l0.601-1.9c0.1-0.3,0.3-0.5,0.5-0.6c0.199-0.1,0.5-0.2,0.8-0.1c0.1,0,0.3,0.1,0.3,0.2
				c0.1,0.1,0.2,0.2,0.2,0.3c0.1,0.2,0.2,0.5,0.1,0.8l-0.6,1.9c-0.101,0.3-0.3,0.5-0.5,0.6C635.1,294.7,634.9,294.7,634.8,294.8z
				 M489.8,292.8c-0.2,0.1-0.5,0.2-0.8,0.1s-0.5-0.2-0.6-0.4l-1.101-1.7c-0.1-0.2-0.2-0.5-0.1-0.8c0.1-0.3,0.2-0.5,0.399-0.6l0,0
				c0.2-0.1,0.5-0.2,0.801-0.1c0.3,0.1,0.5,0.2,0.6,0.4l1.1,1.7c0.101,0.2,0.2,0.5,0.101,0.8C490.2,292.4,490.1,292.6,489.8,292.8z
				 M506.3,317.8c-0.2,0.1-0.5,0.2-0.8,0.1s-0.5-0.2-0.6-0.4l-1.101-1.7c-0.1-0.2-0.2-0.5-0.1-0.8c0.1-0.3,0.2-0.5,0.399-0.6l0,0
				c0.2-0.1,0.5-0.2,0.801-0.1c0.3,0.1,0.5,0.2,0.6,0.4l1.1,1.7c0.101,0.2,0.2,0.5,0.101,0.8C506.7,317.4,506.6,317.6,506.3,317.8z
				 M490.9,294.4L490.9,294.4c0.3-0.2,0.5-0.2,0.8-0.1c0.3,0.1,0.5,0.2,0.6,0.4l1.101,1.7c0.1,0.2,0.199,0.5,0.1,0.8
				c-0.1,0.3-0.2,0.5-0.4,0.6c-0.199,0.1-0.5,0.2-0.8,0.1s-0.5-0.2-0.7-0.4l-1.1-1.7c-0.1-0.2-0.2-0.5-0.1-0.8
				C490.6,294.7,490.7,294.5,490.9,294.4z M509.7,322.8L509.7,322.8c-0.3,0.1-0.5,0.2-0.8,0.1c-0.301-0.1-0.5-0.2-0.7-0.4
				l-1.101-1.7c-0.1-0.2-0.199-0.5-0.1-0.8s0.2-0.5,0.4-0.6l0,0c0.199-0.1,0.5-0.2,0.8-0.1c0.3,0.1,0.5,0.2,0.6,0.4l1.101,1.7
				c0.1,0.2,0.199,0.5,0.1,0.8C510,322.4,509.9,322.6,509.7,322.8z M496.5,302.8c-0.2,0.1-0.5,0.2-0.8,0.1s-0.5-0.2-0.7-0.4
				l-1.1-1.7c-0.101-0.2-0.2-0.5-0.101-0.8c0.101-0.3,0.2-0.5,0.4-0.6l0,0c0.2-0.1,0.5-0.2,0.8-0.1c0.3,0.1,0.5,0.2,0.7,0.4l1.1,1.7
				c0.101,0.2,0.2,0.5,0.101,0.8C496.8,302.4,496.7,302.6,496.5,302.8z M499.8,307.8c-0.2,0.1-0.5,0.2-0.8,0.1s-0.5-0.2-0.7-0.4
				l-1.1-1.7c-0.101-0.2-0.2-0.5-0.101-0.8c0.101-0.3,0.2-0.5,0.4-0.6l0,0c0.2-0.1,0.5-0.2,0.8-0.1c0.3,0.1,0.5,0.2,0.7,0.4l1.1,1.7
				c0.101,0.2,0.2,0.5,0.101,0.8C500.1,307.4,500,307.6,499.8,307.8z M503,312.8c-0.2,0.1-0.5,0.2-0.8,0.1s-0.5-0.2-0.601-0.4
				l-1.1-1.7c-0.1-0.2-0.2-0.5-0.1-0.8c0.1-0.3,0.199-0.5,0.399-0.6l0,0c0.2-0.1,0.5-0.2,0.8-0.1c0.301,0.1,0.5,0.2,0.7,0.4
				l1.101,1.7c0.1,0.2,0.199,0.5,0.1,0.8C503.4,312.4,503.3,312.6,503,312.8z M516.3,332.7L516.3,332.7c-0.3,0.2-0.5,0.2-0.8,0.1
				c-0.3-0.1-0.5-0.2-0.7-0.4l-1.1-1.7c-0.101-0.2-0.2-0.5-0.101-0.8c0.101-0.3,0.2-0.5,0.4-0.6c0.2-0.1,0.5-0.2,0.8-0.1
				c0.3,0.1,0.5,0.2,0.7,0.4l1.1,1.7c0.101,0.2,0.2,0.5,0.101,0.8C516.6,332.4,516.5,332.6,516.3,332.7z M513,327.8L513,327.8
				c-0.3,0.1-0.5,0.2-0.8,0.1s-0.5-0.2-0.7-0.4l-1.1-1.7c-0.101-0.2-0.2-0.5-0.101-0.8c0.101-0.3,0.2-0.5,0.4-0.6l0,0
				c0.2-0.1,0.5-0.2,0.8-0.1c0.3,0.1,0.5,0.2,0.7,0.4l1.1,1.7c0.101,0.2,0.2,0.5,0.101,0.8C513.3,327.4,513.2,327.6,513,327.8z
				 M519.6,337.7L519.6,337.7c-0.3,0.2-0.5,0.2-0.8,0.1c-0.3-0.1-0.5-0.2-0.6-0.4l-1.101-1.7c-0.1-0.2-0.199-0.5-0.1-0.8
				c0.1-0.3,0.2-0.5,0.4-0.6c0.199-0.1,0.5-0.2,0.8-0.1c0.3,0.1,0.5,0.2,0.7,0.4l1.1,1.7c0.1,0.2,0.2,0.5,0.1,0.8
				C519.9,337.4,519.8,337.6,519.6,337.7z M524,344.4c0.2-0.1,0.5-0.2,0.8-0.1c0.3,0.1,0.5,0.2,0.601,0.4l1.1,1.7
				c0.1,0.2,0.2,0.5,0.1,0.8c-0.1,0.3-0.199,0.5-0.399,0.6l0,0c-0.2,0.1-0.5,0.2-0.8,0.1c-0.301-0.1-0.5-0.2-0.7-0.4l-1.101-1.7
				c-0.1-0.2-0.199-0.5-0.1-0.8S523.7,344.5,524,344.4z M522.9,342.7L522.9,342.7c-0.301,0.2-0.5,0.2-0.801,0.1
				c-0.3-0.1-0.5-0.2-0.6-0.4l-1.1-1.7c-0.101-0.2-0.2-0.5-0.101-0.8c0.101-0.3,0.2-0.5,0.4-0.6c0.2-0.1,0.5-0.2,0.8-0.1
				c0.3,0.1,0.5,0.2,0.6,0.4l1.101,1.7c0.1,0.2,0.2,0.5,0.1,0.8C523.2,342.4,523.1,342.6,522.9,342.7z M529.5,352.7L529.5,352.7
				c-0.3,0.2-0.5,0.2-0.8,0.2c-0.3-0.101-0.5-0.2-0.7-0.4l-1.1-1.7c-0.101-0.2-0.2-0.5-0.101-0.8c0.101-0.3,0.2-0.5,0.4-0.6
				s0.5-0.2,0.8-0.1c0.3,0.1,0.5,0.2,0.7,0.4l1.1,1.7c0.101,0.199,0.2,0.5,0.101,0.8C529.8,352.4,529.7,352.6,529.5,352.7z
				 M536.1,362.7L536.1,362.7c-0.3,0.2-0.5,0.2-0.8,0.2c-0.3-0.101-0.5-0.2-0.6-0.4l-1.101-1.7c-0.1-0.2-0.199-0.5-0.1-0.8
				s0.2-0.5,0.4-0.7c0.199-0.1,0.5-0.2,0.8-0.1c0.3,0.1,0.5,0.2,0.7,0.399l1.1,1.7c0.1,0.2,0.2,0.5,0.1,0.8
				C536.4,362.4,536.3,362.6,536.1,362.7z M530.5,354.3c0.2-0.1,0.5-0.2,0.8-0.1c0.3,0.1,0.5,0.2,0.7,0.399l1.1,1.7
				c0.101,0.2,0.2,0.5,0.101,0.8c-0.101,0.301-0.2,0.5-0.4,0.601l0,0c-0.2,0.1-0.5,0.2-0.8,0.1c-0.3-0.1-0.5-0.2-0.7-0.399l-1.1-1.7
				c-0.101-0.2-0.2-0.5-0.101-0.8C530.2,354.7,530.3,354.5,530.5,354.3z M539.4,367.7L539.4,367.7c-0.301,0.2-0.5,0.2-0.801,0.2
				c-0.3-0.101-0.5-0.2-0.6-0.4l-1.1-1.7c-0.101-0.2-0.2-0.5-0.101-0.8c0.101-0.3,0.2-0.5,0.4-0.7c0.2-0.1,0.5-0.2,0.8-0.1
				c0.3,0.1,0.5,0.2,0.6,0.399l1.101,1.7c0.1,0.2,0.2,0.5,0.1,0.8C539.7,367.4,539.6,367.6,539.4,367.7z M542.7,372.7L542.7,372.7
				c-0.3,0.2-0.5,0.2-0.8,0.2c-0.301-0.101-0.5-0.2-0.7-0.4l-1.101-1.7c-0.1-0.2-0.199-0.5-0.1-0.8s0.2-0.5,0.4-0.7
				c0.199-0.1,0.5-0.2,0.8-0.1c0.3,0.1,0.5,0.2,0.6,0.399l1.101,1.7c0.1,0.2,0.199,0.5,0.1,0.8C543,372.4,542.9,372.6,542.7,372.7z
				 M543.8,374.3c0.2-0.1,0.5-0.2,0.8-0.1c0.301,0.1,0.5,0.2,0.7,0.399l1.101,1.7c0.1,0.2,0.199,0.5,0.1,0.8
				c-0.1,0.301-0.2,0.5-0.4,0.601l0,0c-0.199,0.1-0.5,0.2-0.8,0.1c-0.3-0.1-0.5-0.2-0.7-0.399l-1.1-1.7c-0.1-0.2-0.2-0.5-0.1-0.8
				C543.4,374.7,543.5,374.5,543.8,374.3z M549.3,382.7L549.3,382.7c-0.3,0.2-0.5,0.2-0.8,0.2c-0.3-0.101-0.5-0.2-0.7-0.4l-1.1-1.7
				c-0.101-0.2-0.2-0.5-0.101-0.8c0.101-0.3,0.2-0.5,0.4-0.7c0.2-0.1,0.5-0.2,0.8-0.1c0.3,0.1,0.5,0.2,0.7,0.399l1.1,1.7
				c0.101,0.2,0.2,0.5,0.101,0.8C549.6,382.4,549.5,382.6,549.3,382.7z M555.9,392.7L555.9,392.7c-0.301,0.2-0.5,0.2-0.801,0.2
				c-0.3-0.101-0.5-0.2-0.6-0.4l-1.1-1.7c-0.101-0.2-0.2-0.5-0.101-0.8c0.101-0.3,0.2-0.5,0.4-0.7c0.2-0.1,0.5-0.2,0.8-0.1
				c0.3,0.1,0.5,0.2,0.6,0.399l1.101,1.7c0.1,0.2,0.2,0.5,0.1,0.8C556.2,392.4,556.1,392.6,555.9,392.7z M552.6,387.7L552.6,387.7
				c-0.3,0.2-0.5,0.2-0.8,0.2c-0.3-0.101-0.5-0.2-0.6-0.4l-1.101-1.7c-0.1-0.2-0.199-0.5-0.1-0.8s0.2-0.5,0.4-0.7
				c0.199-0.1,0.5-0.2,0.8-0.1c0.3,0.1,0.5,0.2,0.7,0.399l1.1,1.7c0.1,0.2,0.2,0.5,0.1,0.8C552.9,387.4,552.8,387.6,552.6,387.7z
				 M557,394.3c0.2-0.1,0.5-0.2,0.8-0.1c0.3,0.1,0.5,0.2,0.601,0.399l1.1,1.7c0.1,0.2,0.2,0.5,0.1,0.8
				c-0.1,0.301-0.199,0.5-0.399,0.601l0,0c-0.2,0.1-0.5,0.2-0.8,0.1c-0.301-0.1-0.5-0.2-0.7-0.399l-1.101-1.7
				c-0.1-0.2-0.199-0.5-0.1-0.8C556.6,394.7,556.7,394.5,557,394.3z M632.1,302.5c0.101,0.1,0.2,0.2,0.301,0.3
				c0.1,0.2,0.199,0.5,0.1,0.8l-0.6,1.9c-0.101,0.3-0.301,0.5-0.5,0.6c-0.2,0.1-0.301,0.1-0.5,0.1c-0.101,0-0.2,0-0.2,0
				c-0.3-0.1-0.5-0.3-0.601-0.5c-0.1-0.2-0.199-0.5-0.1-0.8l0.6-1.9c0.101-0.3,0.301-0.5,0.5-0.6c0.2-0.1,0.5-0.2,0.801-0.1
				C631.9,302.3,632,302.4,632.1,302.5z M630.2,308.1c0.2,0.1,0.3,0.2,0.3,0.4c0.1,0.3,0.1,0.5,0,0.8l-0.7,1.9
				c-0.1,0.3-0.3,0.4-0.5,0.5c-0.2,0.1-0.3,0.1-0.5,0.1c-0.1,0-0.2,0-0.3-0.1c-0.3-0.1-0.4-0.3-0.5-0.5c-0.1-0.3-0.1-0.5,0-0.8
				l0.7-1.9c0.1-0.3,0.3-0.4,0.5-0.6c0.3-0.1,0.5-0.1,0.8,0C630,308,630.1,308.1,630.2,308.1z M626.9,317.5c-0.101,0-0.2,0-0.4,0
				c-0.3-0.1-0.4-0.3-0.5-0.5c-0.1-0.3-0.1-0.5,0-0.8l0.7-1.9c0.1-0.3,0.3-0.4,0.5-0.5c0.3-0.1,0.5-0.1,0.8,0c0.1,0,0.2,0.1,0.2,0.1
				c0.1,0.1,0.2,0.2,0.3,0.4c0.1,0.3,0.1,0.5,0,0.8l-0.7,1.9c-0.1,0.3-0.3,0.4-0.5,0.6C627.2,317.5,627,317.6,626.9,317.5z
				 M626.2,319.5c0.1,0.1,0.2,0.2,0.3,0.4c0.1,0.2,0.2,0.5,0.1,0.8l-0.6,1.9c-0.1,0.3-0.3,0.5-0.5,0.6c-0.2,0.1-0.3,0.1-0.5,0.1
				c-0.1,0-0.1,0-0.2,0c-0.3-0.1-0.5-0.3-0.6-0.5c-0.101-0.2-0.2-0.5-0.101-0.8l0.601-1.9c0.1-0.3,0.3-0.5,0.5-0.6s0.5-0.2,0.8-0.1
				C626,319.4,626.1,319.5,626.2,319.5z M624.3,325.2c0.2,0.1,0.3,0.2,0.3,0.4c0.101,0.3,0.101,0.5,0.101,0.8l-0.7,1.9
				c-0.1,0.3-0.3,0.4-0.5,0.6c-0.2,0.1-0.3,0.1-0.5,0.1c-0.1,0-0.2,0-0.3-0.1c-0.3-0.1-0.4-0.3-0.601-0.5c-0.1-0.3-0.1-0.5,0-0.8
				l0.7-1.9c0.101-0.3,0.3-0.4,0.5-0.6c0.3-0.1,0.5-0.1,0.8,0C624.1,325.1,624.2,325.2,624.3,325.2z M622.3,330.9
				c0.101,0.1,0.2,0.2,0.3,0.4c0.101,0.3,0.101,0.5,0.101,0.8L622,334c-0.1,0.3-0.3,0.4-0.5,0.5c-0.1,0.1-0.3,0.1-0.5,0.1
				c-0.1,0-0.2,0-0.3,0c-0.3-0.1-0.4-0.3-0.601-0.5c-0.1-0.3-0.1-0.5,0-0.8l0.7-1.9c0.101-0.3,0.3-0.4,0.5-0.5
				c0.3-0.1,0.5-0.1,0.8-0.1C622.1,330.8,622.2,330.9,622.3,330.9z M617,346c-0.1,0-0.2,0-0.3,0c-0.3-0.1-0.4-0.3-0.5-0.5
				c-0.101-0.3-0.101-0.5,0-0.8l0.7-1.9c0.1-0.3,0.3-0.4,0.5-0.5c0.3-0.1,0.5-0.1,0.8,0c0.1,0,0.1,0,0.2,0.1
				c0.199,0.1,0.3,0.3,0.399,0.5c0.101,0.3,0.101,0.5,0,0.8l-0.7,1.9c-0.1,0.3-0.3,0.4-0.5,0.6C617.4,346,617.2,346.1,617,346z
				 M619,340.4c-0.1,0-0.1,0-0.2-0.1c-0.3-0.1-0.5-0.3-0.6-0.5c-0.101-0.2-0.2-0.5-0.101-0.8l0.601-1.9c0.1-0.3,0.3-0.5,0.5-0.6
				s0.5-0.2,0.8-0.1c0.1,0,0.2,0.1,0.3,0.1c0.101,0.1,0.2,0.2,0.3,0.4c0.101,0.2,0.2,0.5,0.101,0.8l-0.601,1.9
				c-0.1,0.3-0.3,0.5-0.5,0.6C619.4,340.3,619.2,340.4,619,340.4z M608.5,370.8c0.2,0.101,0.3,0.3,0.4,0.5c0.1,0.3,0.1,0.5,0,0.8
				l-0.7,1.9c-0.101,0.3-0.3,0.4-0.5,0.5s-0.4,0.1-0.601,0.1c-0.1,0-0.1,0-0.199,0c-0.301-0.1-0.4-0.3-0.5-0.5
				c-0.101-0.3-0.101-0.5-0.101-0.8l0.7-1.899c0.1-0.301,0.3-0.4,0.5-0.5c0.3-0.101,0.5-0.101,0.8,0
				C608.4,370.7,608.4,370.7,608.5,370.8z M606.5,376.5c0.2,0.1,0.3,0.2,0.4,0.4c0.1,0.199,0.199,0.5,0.1,0.8l-0.6,1.899
				c-0.101,0.301-0.301,0.5-0.5,0.601c-0.2,0.1-0.4,0.2-0.7,0.1c0,0,0,0-0.101,0c-0.3-0.1-0.5-0.3-0.6-0.5s-0.2-0.5-0.1-0.8l0.6-1.9
				c0.1-0.3,0.3-0.5,0.5-0.6s0.5-0.2,0.8-0.1C606.4,376.4,606.4,376.4,606.5,376.5z M604.5,382.1c0.2,0.101,0.4,0.301,0.5,0.5
				c0.1,0.301,0.1,0.5,0,0.801l-0.7,1.899c-0.1,0.3-0.3,0.4-0.5,0.5c-0.2,0.101-0.399,0.101-0.6,0.101c0,0-0.101,0-0.2,0
				c-0.3-0.101-0.4-0.301-0.5-0.5c-0.1-0.301-0.1-0.5,0-0.801l0.7-1.899c0.1-0.3,0.3-0.4,0.5-0.5C603.9,382,604.2,382,604.5,382.1
				L604.5,382.1z M601.3,391.6L601.3,391.6c-0.3-0.1-0.5-0.3-0.6-0.5c-0.101-0.199-0.2-0.5-0.101-0.8l0.601-1.899
				c0.1-0.301,0.3-0.5,0.5-0.601c0.2-0.1,0.5-0.2,0.8-0.1h0.1c0.2,0.1,0.301,0.3,0.4,0.5s0.2,0.5,0.1,0.8l-0.6,1.9
				c-0.1,0.3-0.3,0.5-0.5,0.6C601.7,391.6,601.5,391.7,601.3,391.6z M600.6,393.5c0.2,0.1,0.4,0.3,0.5,0.5
				c0.101,0.3,0.101,0.5,0.101,0.8l-0.7,1.9c-0.1,0.3-0.3,0.399-0.5,0.5c-0.2,0.1-0.4,0.1-0.7,0.1h-0.1c-0.3-0.1-0.4-0.3-0.601-0.5
				c-0.1-0.3-0.1-0.5,0-0.8l0.7-1.9c0.101-0.3,0.3-0.399,0.5-0.5C600,393.4,600.3,393.4,600.6,393.5L600.6,393.5z M616.3,348
				c0.101,0.1,0.2,0.2,0.3,0.4c0.101,0.2,0.2,0.5,0.101,0.8L616.1,351.1c-0.1,0.301-0.3,0.5-0.5,0.601c-0.199,0.1-0.399,0.1-0.6,0.1
				h-0.1c-0.301-0.1-0.5-0.3-0.601-0.5c-0.1-0.2-0.2-0.5-0.1-0.8l0.6-1.9c0.101-0.3,0.3-0.5,0.5-0.6s0.5-0.2,0.8-0.1
				C616.2,347.9,616.3,348,616.3,348z M614.4,353.7c0.199,0.1,0.3,0.3,0.399,0.5c0.101,0.3,0.101,0.5,0,0.8l-0.7,1.9
				c-0.1,0.3-0.3,0.399-0.5,0.5c-0.199,0.1-0.399,0.1-0.5,0.1c-0.1,0-0.199,0-0.199,0c-0.301-0.1-0.4-0.3-0.5-0.5
				c-0.101-0.3-0.101-0.5,0-0.8l0.699-1.9c0.101-0.3,0.301-0.399,0.5-0.5C613.9,353.7,614.1,353.7,614.4,353.7
				C614.3,353.6,614.3,353.6,614.4,353.7z M610.5,365c0.2,0.1,0.4,0.3,0.5,0.5c0.1,0.3,0.1,0.5,0,0.8l-0.7,1.9
				c-0.1,0.3-0.3,0.399-0.5,0.5c-0.2,0.1-0.399,0.1-0.6,0.1c-0.101,0-0.101,0-0.2,0c-0.3-0.1-0.4-0.3-0.5-0.5
				c-0.1-0.3-0.1-0.5-0.1-0.8l0.699-1.9c0.101-0.3,0.301-0.399,0.5-0.5c0.301-0.1,0.5-0.1,0.801,0C610.4,365,610.4,365,610.5,365z
				 M611.1,363.1C611.1,363.1,611,363.1,611.1,363.1c-0.399-0.1-0.6-0.3-0.699-0.5c-0.101-0.199-0.2-0.5-0.101-0.8l0.601-1.899
				c0.1-0.301,0.3-0.5,0.5-0.601c0.199-0.1,0.5-0.2,0.8-0.1c0.1,0,0.1,0.1,0.2,0.1c0.199,0.101,0.3,0.2,0.399,0.4
				c0.101,0.2,0.2,0.5,0.101,0.8l-0.601,1.9c-0.1,0.3-0.3,0.5-0.5,0.6C611.5,363.1,611.3,363.2,611.1,363.1z M597.3,403h-0.1
				c-0.3-0.1-0.4-0.3-0.601-0.5c-0.1-0.3-0.1-0.5,0-0.8l0.7-1.9c0.101-0.3,0.3-0.399,0.5-0.5c0.3-0.1,0.5-0.1,0.8,0l0,0
				c0.2,0.101,0.4,0.3,0.5,0.5c0.101,0.3,0.101,0.5,0.101,0.8l-0.7,1.9c-0.1,0.3-0.3,0.4-0.5,0.5C597.7,403.1,597.5,403.1,597.3,403
				z M596.6,405c0.2,0.1,0.301,0.2,0.5,0.5c0.101,0.2,0.2,0.5,0.101,0.8l-0.601,1.9c-0.1,0.3-0.3,0.5-0.5,0.6
				c-0.199,0.101-0.5,0.2-0.699,0.101l0,0c-0.301-0.101-0.5-0.301-0.601-0.5c-0.1-0.2-0.2-0.5-0.1-0.801l0.6-1.899
				c0.101-0.3,0.3-0.5,0.5-0.601C596,405,596.3,404.9,596.6,405C596.5,404.9,596.6,404.9,596.6,405z M594.7,410.6
				c0.2,0.101,0.399,0.301,0.5,0.5c0.1,0.301,0.1,0.5,0,0.801l-0.7,1.899c-0.1,0.3-0.3,0.4-0.5,0.5c-0.2,0.101-0.5,0.101-0.7,0.101
				h-0.1c-0.3-0.101-0.4-0.301-0.5-0.5c-0.101-0.301-0.101-0.5,0-0.801l0.7-1.899c0.1-0.3,0.3-0.4,0.5-0.5
				C594.1,410.5,594.4,410.5,594.7,410.6L594.7,410.6z M592.7,416.3c0.2,0.101,0.399,0.3,0.5,0.5c0.1,0.2,0.2,0.5,0.1,0.8l-0.6,1.9
				c-0.101,0.3-0.3,0.5-0.5,0.6c-0.2,0.101-0.5,0.2-0.8,0.101l0,0c-0.2-0.101-0.4-0.3-0.5-0.5c-0.101-0.2-0.2-0.5-0.101-0.8
				l0.601-1.9c0.1-0.3,0.3-0.5,0.5-0.6C592.1,416.2,592.3,416.2,592.7,416.3C592.6,416.3,592.7,416.3,592.7,416.3z M589.7,422.2
				c0.1-0.101,0.2-0.101,0.3-0.2c0.2-0.1,0.5-0.1,0.8,0l0,0c0.3,0.1,0.4,0.3,0.5,0.5c0.101,0.3,0.101,0.5,0,0.8L590.9,424.4
				c-0.101,0.3-0.301,0.399-0.5,0.6c-0.301,0.1-0.5,0.1-0.801,0c-0.3-0.1-0.399-0.3-0.6-0.5c-0.1-0.3-0.1-0.5,0-0.8l0.4-1.101
				C589.5,422.4,589.6,422.3,589.7,422.2z M562.5,402.7L562.5,402.7c-0.3,0.2-0.5,0.2-0.8,0.2c-0.3-0.101-0.5-0.2-0.7-0.4l-1.1-1.7
				c-0.101-0.2-0.2-0.5-0.101-0.8c0.101-0.3,0.2-0.5,0.4-0.7c0.2-0.1,0.5-0.2,0.8-0.1c0.3,0.1,0.5,0.2,0.7,0.399l1.1,1.7
				c0.101,0.2,0.2,0.5,0.101,0.8C562.8,402.4,562.7,402.6,562.5,402.7z M563.6,404.3c0.2-0.1,0.4-0.2,0.7-0.1
				c0.3,0,0.5,0.2,0.601,0.399l1.1,1.601c0.2,0.2,0.2,0.5,0.1,0.8c0,0.3-0.199,0.5-0.399,0.7l0,0c-0.2,0.2-0.5,0.2-0.7,0.2
				c-0.3,0-0.5-0.2-0.7-0.4l-1.1-1.6c-0.2-0.2-0.2-0.5-0.2-0.801C563.2,404.8,563.3,404.5,563.6,404.3
				C563.5,404.4,563.6,404.4,563.6,404.3z"/>
		</g>
	</g>
	<g>
		<g>
			<g>
				<path d="M547.2,172.4v-18.8H429.3c0.101,6.4,0.601,12.6,1.601,18.6l0,0c1.1,6.7,2.699,13.3,4.899,19.5
					c2.3,6.7,5.3,13.2,8.9,19.4c1.2,2,2.399,4,3.7,6v0.1c2.8,4,5.8,8,9.199,11.9c0.7,0.9,1.5,1.7,2.301,2.6v0.1
					c1.3,1.4,2.8,2.9,4.3,4.4c0.5,0.5,1,1,1.6,1.5c0,0,0,0.1,0.101,0.1c2.1,2.1,4.199,4,6.399,5.9c1.9,1.5,3.7,3,5.601,4.4
					c3.5,2.6,7.1,5,10.699,7.2l0,0c0.9,0.5,1.801,1,2.801,1.6c6.1,3.3,12.399,6.1,19,8.3c11.5,3.8,23.8,5.8,36.899,5.9V254h-16.8
					c-0.4,0-0.7-0.2-0.9-0.5c-0.3-0.3-0.5-0.6-0.5-1s0.101-0.7,0.5-0.9c0.301-0.3,0.601-0.4,0.9-0.4h16.8v-17.8H535
					c-0.2,0-0.3-0.1-0.4-0.2c-0.1-0.1-0.199-0.3-0.199-0.5c0-0.2,0.1-0.3,0.199-0.5c0.101-0.1,0.301-0.2,0.4-0.2h12.3v-17.4H535
					c-0.2,0-0.3-0.1-0.4-0.2c-0.1-0.1-0.199-0.3-0.199-0.5c0-0.2,0.1-0.3,0.199-0.4c0.101-0.1,0.301-0.2,0.4-0.2h12.3v-19H535
					c-0.2,0-0.3-0.1-0.4-0.2c-0.1-0.1-0.199-0.3-0.199-0.5c0-0.2,0.1-0.3,0.199-0.5c0.101-0.1,0.301-0.2,0.4-0.2h12.3v-19.1H535
					c-0.2,0-0.3-0.1-0.4-0.2c-0.1-0.1-0.199-0.3-0.199-0.4c0-0.2,0.1-0.4,0.199-0.5c0.101-0.1,0.301-0.2,0.4-0.2h12.2V172.4z
					 M510.3,38.6c-6.6,2.2-13,5-19.1,8.4c-4.9,2.8-9.7,5.9-14.3,9.5c-4.4,3.3-8.601,7.1-12.7,11.2c-8.5,8.4-15.5,17.6-20.8,27.4
					c-3.5,6.3-6.4,12.9-8.5,19.8L434.8,115c-1.899,5.9-3.3,12.1-4.1,18.5l0,0c-0.8,5.6-1.3,11.4-1.4,17.3H528
					c0.1-0.1,0.3-0.1,0.4-0.1c0.1,0,0.3,0,0.399,0.1h18.3v-17.5h-12.6c-0.2,0-0.4-0.1-0.5-0.2s-0.2-0.3-0.2-0.5
					c0-0.2,0.101-0.4,0.2-0.5s0.3-0.2,0.5-0.2h12.6v-18h-12.6c-0.2,0-0.4-0.1-0.5-0.2c-0.1-0.1-0.2-0.3-0.2-0.5
					c0-0.2,0.101-0.3,0.2-0.4c0.1-0.1,0.3-0.2,0.5-0.2h12.6V93.1h-12.6c-0.2,0-0.4-0.1-0.5-0.2s-0.2-0.3-0.2-0.5
					c0-0.2,0.101-0.3,0.2-0.5c0.1-0.1,0.3-0.2,0.5-0.2h12.6V73.9h-12.6c-0.2,0-0.4-0.1-0.5-0.2c-0.1-0.1-0.2-0.3-0.2-0.5
					c0-0.2,0.101-0.4,0.2-0.5c0.1-0.1,0.3-0.2,0.5-0.2h12.6v-19h-17.5c-0.399,0-0.699-0.1-1-0.4c-0.3-0.3-0.399-0.6-0.399-0.9
					c0-0.3,0.1-0.7,0.399-1c0.301-0.3,0.601-0.4,1-0.4h17.5v-18C534.1,32.9,521.8,34.9,510.3,38.6z M667.8,150.9
					c-0.1-5.9-0.5-11.7-1.3-17.3c-2-13.8-6.3-26.6-12.8-38.4c-5.4-9.9-12.4-19-20.9-27.4c-22.899-23-50.6-34.6-82.899-35v18H566.8
					c0.4,0,0.7,0.1,1,0.4c0.3,0.3,0.4,0.6,0.4,1c0,0.4-0.101,0.7-0.4,0.9c-0.3,0.3-0.6,0.4-1,0.4H549.9v19.1H561.3
					c0.2,0,0.4,0.1,0.5,0.2c0.101,0.1,0.2,0.3,0.2,0.5c0,0.2-0.1,0.3-0.2,0.5c-0.1,0.1-0.3,0.2-0.5,0.2H549.9v17.9H561.3
					c0.2,0,0.4,0.1,0.5,0.2c0.101,0.2,0.2,0.3,0.2,0.5c0,0.2-0.1,0.4-0.2,0.5c-0.1,0.1-0.3,0.2-0.5,0.2H549.9v19.5H561.3
					c0.2,0,0.4,0.1,0.5,0.2c0.101,0.1,0.2,0.3,0.2,0.4c0,0.2-0.1,0.4-0.2,0.5c-0.1,0.1-0.3,0.2-0.5,0.2H549.9v18H561.3
					c0.2,0,0.4,0.1,0.5,0.2c0.101,0.1,0.2,0.3,0.2,0.5c0,0.2-0.1,0.3-0.2,0.5c-0.1,0.1-0.3,0.2-0.5,0.2H549.9V151H667.8V150.9z
					 M677,174c-1.2,7.4-3,14.5-5.3,21.4v0.1c-4.2,12-10.3,23.3-18.3,33.8c-1.801,2.3-3.7,4.7-5.7,7v0.1c-2.3,2.6-4.7,5.2-7.2,7.7
					c-9.2,9.2-19.1,16.7-29.6,22.6c-6.4,3.5-12.9,6.4-19.7,8.8c-0.3,0.1-0.5,0.3-0.8,0.4c-13.101,4.3-27.101,6.4-41.9,6.4
					s-28.7-2.1-41.7-6.4c-7.3-2.4-14.3-5.5-21-9.2c-1-0.6-2-1.2-2.899-1.8c-4-2.4-7.801-5-11.601-7.8c-2-1.5-4-3.1-6-4.8l-0.1-0.1
					c-2.3-2-4.601-4.1-6.9-6.3c-0.7-0.6-1.3-1.2-1.8-1.8c-1.6-1.7-3.2-3.3-4.7-4.9c-0.899-0.9-1.7-1.9-2.5-2.8v-0.1
					c-3.7-4.2-7-8.5-10-13l0,0c-1.399-2.2-2.8-4.4-4-6.5c-4-6.8-7.3-14-9.8-21.4v0.1c-2.5-6.9-4.3-14.1-5.5-21.6v0.1
					c-1.1-7-1.7-14.2-1.7-21.8V152c0-6.9,0.5-13.5,1.5-20c1-7,2.5-13.8,4.601-20.4c2.399-7.6,5.5-14.9,9.399-21.9v0.1
					c5.8-10.7,13.4-20.7,22.7-30c4.4-4.4,9-8.5,13.8-12.1c5-3.9,10.2-7.4,15.601-10.4c6.699-3.7,13.699-6.8,21-9.2
					c13-4.3,26.899-6.5,41.699-6.5c35.9,0,66.601,12.7,92,38.1c9.2,9.3,16.801,19.3,22.7,30c7.2,13,11.9,27,14.101,42.1
					c0.899,6.4,1.399,13.1,1.399,20c0,0.1,0,0.2,0,0.3C678.7,159.7,678.2,166.9,677,174z M661.3,191.8c2.101-6.3,3.8-12.8,4.9-19.5
					c1-6,1.5-12.3,1.5-18.6H549.9v18.8H560.8c0.2,0,0.4,0.1,0.5,0.2c0.101,0.1,0.2,0.3,0.2,0.5c0,0.2-0.1,0.3-0.2,0.4
					c-0.1,0.1-0.3,0.2-0.5,0.2H549.9v19.1H560.8c0.2,0,0.4,0.1,0.5,0.2c0.101,0.2,0.2,0.3,0.2,0.5c0,0.2-0.1,0.4-0.2,0.5
					c-0.1,0.1-0.3,0.2-0.5,0.2H549.9v19H560.8c0.2,0,0.4,0.1,0.5,0.2c0.101,0.1,0.2,0.3,0.2,0.4c0,0.2-0.1,0.4-0.2,0.5
					c-0.1,0.1-0.3,0.2-0.5,0.2H549.9V232H560.8c0.2,0,0.4,0.1,0.5,0.2c0.101,0.1,0.2,0.3,0.2,0.5c0,0.2-0.1,0.4-0.2,0.5
					c-0.1,0.1-0.3,0.2-0.5,0.2H549.9v17.8h16c0.399,0,0.699,0.1,1,0.4c0.3,0.3,0.399,0.6,0.399,0.9s-0.1,0.7-0.399,1
					c-0.301,0.3-0.601,0.5-1,0.5h-16v17.2c12.899-0.1,25.1-2,36.6-5.7c0.1-0.1,0.3-0.2,0.5-0.2c6.5-2.2,12.7-5,18.6-8.3l0,0
					c9.7-5.4,18.801-12.3,27.301-20.7c2.3-2.4,4.5-4.8,6.699-7.1c1.801-2.1,3.601-4.3,5.301-6.5H644.8
					C651.9,213.1,657.5,202.8,661.3,191.8z"/>
			</g>
			<g>
				<path d="M598.3,59.4h-1V56c0-0.2,0-0.5,0-0.8c0-0.2-0.1-0.4-0.2-0.6c0-0.1-0.1-0.3-0.3-0.4c-0.1-0.1-0.3-0.1-0.6-0.1
					s-0.601,0.1-0.9,0.2c-0.3,0.1-0.5,0.3-0.8,0.5c0,0.1,0,0.2,0,0.3s0,0.3,0,0.3v3.8h-1V56c0-0.2,0-0.5-0.1-0.8
					c0-0.2-0.101-0.4-0.2-0.6c-0.101-0.1-0.2-0.3-0.3-0.4c-0.2-0.1-0.4-0.1-0.7-0.1s-0.5,0.1-0.8,0.2c-0.301,0.1-0.5,0.3-0.801,0.5
					v4.5h-1v-6h1V54c0.301-0.2,0.601-0.4,1-0.5c0.301-0.2,0.7-0.3,1-0.3c0.4,0,0.801,0.1,1.101,0.3s0.5,0.4,0.7,0.7
					c0.399-0.3,0.8-0.5,1.1-0.7s0.7-0.3,1.1-0.3c0.601,0,1.101,0.2,1.4,0.6c0.3,0.4,0.5,1,0.5,1.7v3.9H598.3z M588.3,54.9
					L588.3,54.9c-0.399-0.2-0.7-0.4-1-0.6c-0.3-0.1-0.6-0.2-1-0.2c-0.6,0-1,0.2-1.3,0.6c-0.4,0.4-0.5,0.9-0.5,1.6
					c0,0.7,0.2,1.3,0.5,1.7s0.7,0.6,1.3,0.6c0.2,0,0.4,0,0.601-0.1c0.199,0,0.399-0.1,0.6-0.2c0.2-0.1,0.3-0.2,0.5-0.2
					c0.1-0.1,0.2-0.2,0.3-0.3h0.101V59c-0.301,0.1-0.7,0.2-1,0.3c-0.301,0.1-0.601,0.1-0.9,0.1c-0.4,0-0.8-0.1-1.2-0.2
					c-0.4-0.1-0.7-0.3-1-0.5c-0.3-0.3-0.5-0.6-0.6-1c-0.101-0.4-0.2-0.9-0.2-1.4c0-1,0.3-1.7,0.8-2.3s1.2-0.9,2.1-0.9
					c0.4,0,0.7,0,1,0.1c0.301,0.1,0.601,0.2,0.9,0.4V54.9L588.3,54.9z M577.2,54c-0.101-0.4-0.101-0.8-0.2-1.1
					c-0.1-0.3-0.3-0.5-0.5-0.6c-0.2-0.1-0.5-0.2-0.9-0.2c-0.3,0-0.6,0.1-0.8,0.2c-0.2,0.1-0.399,0.3-0.5,0.6
					c-0.1,0.3-0.2,0.7-0.2,1.1c-0.1,0.4-0.1,0.9-0.1,1.4s0,1,0,1.4c0.1,0.4,0.2,0.8,0.3,1c0.101,0.3,0.3,0.5,0.5,0.6
					c0.2,0.2,0.5,0.3,0.9,0.3c0.3,0,0.6-0.1,0.899-0.3c0.2-0.1,0.4-0.3,0.5-0.6c0.101-0.3,0.101-0.6,0.2-1c0-0.4,0-0.8,0-1.4
					C577.2,54.8,577.2,54.4,577.2,54z M578.3,55.4c0,1.4-0.2,2.5-0.7,3.1c-0.399,0.6-1.1,1-2,1c-0.899,0-1.699-0.3-2.1-1
					s-0.7-1.8-0.7-3.1c0-1.4,0.2-2.5,0.7-3.1c0.4-0.7,1.1-1,2.1-1s1.7,0.3,2.2,1C578.1,52.9,578.3,54,578.3,55.4z"/>
			</g>
			<g>
				<path d="M607.7,244.3c0,0.1,0,0.2,0,0.3s0,0.3,0,0.4v3.8h-1v-3.4c0-0.2,0-0.5,0-0.8c0-0.2-0.101-0.4-0.2-0.6
					c-0.1-0.1-0.2-0.3-0.3-0.3c-0.101-0.1-0.4-0.2-0.7-0.2s-0.6,0.1-0.8,0.2c-0.2,0.1-0.5,0.3-0.8,0.5v4.5h-1v-6h1v0.7
					c0.3-0.2,0.6-0.4,1-0.6c0.3-0.2,0.699-0.3,1-0.3c0.399,0,0.8,0.1,1.1,0.3c0.3,0.2,0.5,0.4,0.6,0.6c0.4-0.3,0.801-0.5,1.101-0.6
					c0.3-0.2,0.7-0.3,1.1-0.3c0.7,0,1.101,0.2,1.4,0.6s0.5,1,0.5,1.6v3.9h-1v-3.4c0-0.2,0-0.5,0-0.8c0-0.2-0.101-0.4-0.2-0.6
					c0-0.1-0.1-0.3-0.3-0.3c-0.101-0.1-0.3-0.2-0.601-0.2c-0.3,0-0.6,0.1-0.899,0.2S608,244.1,607.7,244.3z M576.5,247.2
					c0.1,0.3,0.3,0.5,0.5,0.6c0.2,0.2,0.5,0.3,0.9,0.3c0.3,0,0.6-0.1,0.8-0.3c0.2-0.1,0.399-0.3,0.5-0.6c0.1-0.3,0.2-0.6,0.2-1.1
					c0.1-0.4,0.1-0.8,0.1-1.4c0-0.6,0-1-0.1-1.4c0-0.4-0.101-0.7-0.2-1c-0.101-0.3-0.3-0.5-0.5-0.6c-0.2-0.1-0.5-0.2-0.8-0.2
					c-0.301,0-0.601,0.1-0.801,0.2c-0.199,0.1-0.399,0.3-0.5,0.6c-0.1,0.3-0.199,0.6-0.199,1.1c0,0.4,0,0.8,0,1.3s0,1,0,1.4
					C576.2,246.6,576.3,246.9,576.5,247.2z M575.7,241.6c0.5-0.7,1.2-1,2.1-1c0.9,0,1.601,0.4,2.101,1c0.399,0.7,0.6,1.7,0.6,3.1
					c0,1.4-0.2,2.5-0.6,3.2c-0.4,0.6-1.101,0.9-2.101,0.9s-1.7-0.3-2.1-0.9c-0.4-0.7-0.601-1.7-0.601-3.2
					C575.1,243.4,575.3,242.3,575.7,241.6z M586.4,247.4c0.3,0.2,0.6,0.3,1,0.4c0.399,0.1,0.8,0.2,1.1,0.2c0.2,0,0.5,0,0.7-0.1
					c0.3-0.1,0.5-0.2,0.7-0.4c0.1-0.1,0.199-0.3,0.3-0.5c0.1-0.2,0.2-0.5,0.2-0.8c0-0.3,0-0.5-0.2-0.7c-0.101-0.2-0.3-0.3-0.4-0.5
					c-0.2-0.1-0.399-0.2-0.7-0.3c-0.3,0-0.5,0-0.899,0c-0.3,0-0.601,0-0.9,0s-0.6,0.1-0.8,0.2v-4.2h4.8v0.9h-3.8v2.1
					c0.1,0,0.3,0,0.5,0c0.1,0,0.3,0,0.4,0c0.399,0,0.8,0,1.1,0c0.3,0.1,0.6,0.2,0.9,0.4c0.3,0.2,0.5,0.5,0.699,0.8
					c0.101,0.3,0.2,0.7,0.2,1.2c0,0.4-0.1,0.7-0.2,1.1c-0.199,0.3-0.3,0.6-0.5,0.8c-0.199,0.3-0.5,0.5-0.899,0.6
					c-0.4,0.1-0.8,0.1-1.3,0.1s-0.9,0-1.301-0.1c-0.399-0.1-0.699-0.2-1-0.3L586.4,247.4L586.4,247.4z M584,247.3v1.5h-1.3v-1.5H584
					z M596.7,245.8c0-1,0.3-1.7,0.8-2.3c0.6-0.6,1.3-0.9,2.2-0.9c0.399,0,0.7,0.1,1,0.1c0.3,0.1,0.6,0.2,0.8,0.4v1.1l0,0
					c-0.3-0.2-0.7-0.4-1-0.5c-0.3-0.1-0.6-0.2-1-0.2c-0.6,0-1,0.2-1.3,0.6c-0.4,0.4-0.5,0.9-0.5,1.6c0,0.7,0.2,1.3,0.5,1.7
					s0.7,0.5,1.3,0.5c0.2,0,0.4,0,0.6,0c0.2,0,0.4-0.1,0.601-0.2c0.1-0.1,0.3-0.2,0.5-0.2c0.1-0.1,0.2-0.2,0.3-0.3l0,0v1.2
					c-0.3,0.1-0.6,0.3-1,0.3c-0.3,0.1-0.6,0.1-0.9,0.1c-0.399,0-0.8-0.1-1.199-0.2c-0.4-0.1-0.7-0.3-1-0.6
					c-0.301-0.3-0.5-0.6-0.601-0.9C596.8,246.8,596.7,246.3,596.7,245.8z"/>
			</g>
		</g>
	</g>
</g>
</svg>
